<?xml version="1.0" encoding="UTF-8"?>
<svg height="34" width="223.4" version="1.1" xmlns="http://www.w3.org/2000/svg"><!--Created by Josélio de S. C. Júnior - 2021 - https://github.com/joseliojunior -->
<rect
    height="32"
    width="221.4"
    rx="16"
    ry="16"
    x="1" y="1"
    fill="#0a66c2"
    stroke="#ffffff"
    stroke-width="1" />
<g transform="translate(0, 12)">
    <path transform="translate(12, -8)" fill="#ffffff"
    d="M20.447 20.452h-3.554v-5.569c0-1.328-.027-3.037-1.852-3.037-1.853 0-2.136 1.445-2.136 2.939v5.667H9.351V9h3.414v1.561h.046c.477-.9 1.637-1.85 3.37-1.85 3.601 0 4.267 2.37 4.267 5.455v6.286zM5.337 7.433c-1.144 0-2.063-.926-2.063-2.065 0-1.138.92-2.063 2.063-2.063 1.14 0 2.064.925 2.064 2.063 0 1.139-.925 2.065-2.064 2.065zm1.782 13.019H3.555V9h3.564v11.452zM22.225 0H1.771C.792 0 0 .774 0 1.729v20.542C0 23.227.792 24 1.771 24h20.451C23.2 24 24 23.227 24 22.271V1.729C24 .774 23.2 0 22.222 0h.003z"/>
    <path fill="#ffffff" d="M54.51-2.86L54.51 7.03Q54.51 8.11 54.24 9.07Q53.96 10.03 53.32 10.75Q52.69 11.47 51.68 11.89Q50.67 12.31 49.23 12.31L49.23 12.31Q47.72 12.31 46.71 11.93Q45.70 11.54 45.01 10.99L45.01 10.99L46.14 8.64Q46.74 9.02 47.47 9.38Q48.20 9.74 48.97 9.74L48.97 9.74Q50.12 9.74 50.83 9.13Q51.54 8.52 51.54 6.86L51.54 6.86L51.54-0.41L46.57-0.41L46.57-2.86L54.51-2.86ZM67.33 6.34L67.33 6.34Q67.33 7.68 66.94 8.77Q66.56 9.86 65.86 10.66Q65.17 11.45 64.20 11.88Q63.22 12.31 62.02 12.31L62.02 12.31Q60.82 12.31 59.85 11.88Q58.88 11.45 58.17 10.66Q57.46 9.86 57.08 8.77Q56.70 7.68 56.70 6.34L56.70 6.34Q56.70 5.02 57.09 3.92Q57.49 2.83 58.20 2.05Q58.90 1.27 59.89 0.85Q60.87 0.43 62.02 0.43L62.02 0.43Q63.20 0.43 64.17 0.85Q65.14 1.27 65.85 2.05Q66.56 2.83 66.94 3.92Q67.33 5.02 67.33 6.34ZM59.70 6.36L59.70 6.36Q59.70 7.87 60.24 8.81Q60.78 9.74 61.98 9.74L61.98 9.74Q63.13 9.74 63.72 8.81Q64.30 7.87 64.30 6.36L64.30 6.36Q64.30 4.85 63.76 3.92Q63.22 3 62.02 3L62.02 3Q60.87 3 60.28 3.92Q59.70 4.85 59.70 6.36ZM73.47 9.77L73.47 9.77Q74.55 9.77 75.13 9.61Q75.70 9.46 75.70 8.98L75.70 8.98Q75.70 8.66 75.52 8.45Q75.34 8.23 75.02 8.08Q74.70 7.92 74.28 7.78Q73.86 7.63 73.40 7.49L73.40 7.49Q72.75 7.30 72.08 7.04Q71.41 6.79 70.86 6.41Q70.30 6.02 69.94 5.44Q69.58 4.85 69.58 3.96L69.58 3.96Q69.58 3.24 69.86 2.60Q70.14 1.97 70.72 1.48Q71.31 0.98 72.22 0.71Q73.14 0.43 74.41 0.43L74.41 0.43Q75.51 0.43 76.46 0.60Q77.41 0.77 78.10 1.08L78.10 1.08L77.65 3.58Q77.24 3.46 76.38 3.18Q75.51 2.90 74.43 2.90L74.43 2.90Q73.30 2.90 72.91 3.18Q72.51 3.46 72.51 3.77L72.51 3.77Q72.51 4.03 72.69 4.24Q72.87 4.44 73.17 4.61Q73.47 4.78 73.87 4.93Q74.26 5.09 74.72 5.23L74.72 5.23Q75.37 5.45 76.06 5.71Q76.76 5.98 77.32 6.37Q77.89 6.77 78.25 7.38Q78.61 7.99 78.61 8.88L78.61 8.88Q78.61 9.58 78.34 10.20Q78.08 10.82 77.47 11.28Q76.86 11.74 75.87 12Q74.89 12.26 73.45 12.26L73.45 12.26Q71.98 12.26 70.95 11.93Q69.92 11.59 69.30 11.33L69.30 11.33L69.75 8.86Q70.59 9.19 71.54 9.48Q72.49 9.77 73.47 9.77ZM80.74 6.46L80.74 6.46Q80.74 4.97 81.20 3.84Q81.66 2.71 82.40 1.96Q83.14 1.20 84.10 0.82Q85.06 0.43 86.07 0.43L86.07 0.43Q88.57 0.43 89.86 1.91Q91.16 3.38 91.16 6.22L91.16 6.22Q91.16 6.50 91.15 6.82Q91.14 7.13 91.11 7.32L91.11 7.32L83.79 7.32Q83.79 8.42 84.70 9.06Q85.62 9.70 87.06 9.70L87.06 9.70Q87.94 9.70 88.75 9.50Q89.55 9.31 90.10 9.12L90.10 9.12L90.51 11.64Q89.74 11.90 88.88 12.08Q88.02 12.26 86.94 12.26L86.94 12.26Q85.50 12.26 84.36 11.89Q83.22 11.52 82.41 10.79Q81.61 10.06 81.18 8.98Q80.74 7.90 80.74 6.46ZM83.79 5.28L88.30 5.28Q88.30 4.82 88.18 4.40Q88.06 3.98 87.80 3.65Q87.54 3.31 87.13 3.11Q86.72 2.90 86.12 2.90L86.12 2.90Q85.54 2.90 85.12 3.10Q84.70 3.29 84.43 3.62Q84.15 3.96 84.00 4.39Q83.84 4.82 83.79 5.28L83.79 5.28ZM87.66-4.58L89.12-2.33L84.94-0.31L83.86-1.92L87.66-4.58ZM102.82 9.14L103.21 11.52Q103.14 11.57 102.88 11.69Q102.63 11.81 102.22 11.94Q101.82 12.07 101.23 12.17Q100.64 12.26 99.90 12.26L99.90 12.26Q97.86 12.26 96.92 11.05Q95.98 9.84 95.98 7.51L95.98 7.51L95.98-2.06L92.86-2.06L92.86-4.51L98.94-4.51L98.94 7.73Q98.94 8.88 99.39 9.29Q99.85 9.70 100.54 9.70L100.54 9.70Q101.43 9.70 102.03 9.46Q102.63 9.22 102.82 9.14L102.82 9.14ZM110.82-2.52L110.82-2.52Q110.82-1.66 110.26-1.15Q109.71-0.65 108.94-0.65L108.94-0.65Q108.18-0.65 107.64-1.15Q107.10-1.66 107.10-2.52L107.10-2.52Q107.10-3.41 107.64-3.91Q108.18-4.42 108.94-4.42L108.94-4.42Q109.71-4.42 110.26-3.91Q110.82-3.41 110.82-2.52ZM114.82 9.14L115.21 11.52Q114.30 11.95 113.49 12.11Q112.69 12.26 112.02 12.26L112.02 12.26Q110.86 12.26 110.08 11.93Q109.30 11.59 108.84 10.96Q108.37 10.32 108.18 9.41Q107.98 8.50 107.98 7.32L107.98 7.32L107.98 3.17L104.86 3.17L104.86 0.72L110.94 0.72L110.94 7.70Q110.94 8.71 111.31 9.20Q111.68 9.70 112.54 9.70L112.54 9.70Q112.95 9.70 113.53 9.59Q114.10 9.48 114.82 9.14L114.82 9.14ZM127.33 6.34L127.33 6.34Q127.33 7.68 126.94 8.77Q126.56 9.86 125.86 10.66Q125.17 11.45 124.20 11.88Q123.22 12.31 122.02 12.31L122.02 12.31Q120.82 12.31 119.85 11.88Q118.88 11.45 118.17 10.66Q117.46 9.86 117.08 8.77Q116.70 7.68 116.70 6.34L116.70 6.34Q116.70 5.02 117.09 3.92Q117.49 2.83 118.20 2.05Q118.90 1.27 119.89 0.85Q120.87 0.43 122.02 0.43L122.02 0.43Q123.20 0.43 124.17 0.85Q125.14 1.27 125.85 2.05Q126.56 2.83 126.94 3.92Q127.33 5.02 127.33 6.34ZM119.70 6.36L119.70 6.36Q119.70 7.87 120.24 8.81Q120.78 9.74 121.98 9.74L121.98 9.74Q123.13 9.74 123.72 8.81Q124.30 7.87 124.30 6.36L124.30 6.36Q124.30 4.85 123.76 3.92Q123.22 3 122.02 3L122.02 3Q120.87 3 120.28 3.92Q119.70 4.85 119.70 6.36ZM150.51-2.86L150.51 7.03Q150.51 8.11 150.24 9.07Q149.96 10.03 149.32 10.75Q148.69 11.47 147.68 11.89Q146.67 12.31 145.23 12.31L145.23 12.31Q143.72 12.31 142.71 11.93Q141.70 11.54 141.01 10.99L141.01 10.99L142.14 8.64Q142.74 9.02 143.47 9.38Q144.20 9.74 144.97 9.74L144.97 9.74Q146.12 9.74 146.83 9.13Q147.54 8.52 147.54 6.86L147.54 6.86L147.54-0.41L142.57-0.41L142.57-2.86L150.51-2.86ZM162.51 0.72L162.51 11.62Q161.70 11.83 160.53 12.05Q159.37 12.26 158 12.26L158 12.26Q156.61 12.26 155.72 11.88Q154.83 11.50 154.32 10.79Q153.80 10.08 153.61 9.12Q153.42 8.16 153.42 7.01L153.42 7.01L153.42 0.72L156.37 0.72L156.37 6.62Q156.37 8.18 156.74 8.94Q157.11 9.70 158.19 9.70L158.19 9.70Q158.86 9.70 159.54 9.58L159.54 9.58L159.54 0.72L162.51 0.72ZM159.15-4.58L160.62-2.33L156.44-0.31L155.36-1.92L159.15-4.58ZM165.51 12L165.51 1.08Q166.30 0.86 167.47 0.67Q168.63 0.48 170 0.48L170 0.48Q171.34 0.48 172.23 0.85Q173.12 1.22 173.64 1.91Q174.15 2.59 174.37 3.54Q174.58 4.49 174.58 5.64L174.58 5.64L174.58 12L171.63 12L171.63 6.02Q171.63 4.44 171.27 3.74Q170.91 3.05 169.81 3.05L169.81 3.05Q169.47 3.05 169.15 3.07Q168.82 3.10 168.46 3.14L168.46 3.14L168.46 12L165.51 12ZM182.82-2.52L182.82-2.52Q182.82-1.66 182.26-1.15Q181.71-0.65 180.94-0.65L180.94-0.65Q180.18-0.65 179.64-1.15Q179.10-1.66 179.10-2.52L179.10-2.52Q179.10-3.41 179.64-3.91Q180.18-4.42 180.94-4.42L180.94-4.42Q181.71-4.42 182.26-3.91Q182.82-3.41 182.82-2.52ZM186.82 9.14L187.21 11.52Q186.30 11.95 185.49 12.11Q184.69 12.26 184.02 12.26L184.02 12.26Q182.86 12.26 182.08 11.93Q181.30 11.59 180.84 10.96Q180.37 10.32 180.18 9.41Q179.98 8.50 179.98 7.32L179.98 7.32L179.98 3.17L176.86 3.17L176.86 0.72L182.94 0.72L182.94 7.70Q182.94 8.71 183.31 9.20Q183.68 9.70 184.54 9.70L184.54 9.70Q184.95 9.70 185.53 9.59Q186.10 9.48 186.82 9.14L186.82 9.14ZM199.33 6.34L199.33 6.34Q199.33 7.68 198.94 8.77Q198.56 9.86 197.86 10.66Q197.17 11.45 196.20 11.88Q195.22 12.31 194.02 12.31L194.02 12.31Q192.82 12.31 191.85 11.88Q190.88 11.45 190.17 10.66Q189.46 9.86 189.08 8.77Q188.70 7.68 188.70 6.34L188.70 6.34Q188.70 5.02 189.09 3.92Q189.49 2.83 190.20 2.05Q190.90 1.27 191.89 0.85Q192.87 0.43 194.02 0.43L194.02 0.43Q195.20 0.43 196.17 0.85Q197.14 1.27 197.85 2.05Q198.56 2.83 198.94 3.92Q199.33 5.02 199.33 6.34ZM191.70 6.36L191.70 6.36Q191.70 7.87 192.24 8.81Q192.78 9.74 193.98 9.74L193.98 9.74Q195.13 9.74 195.72 8.81Q196.30 7.87 196.30 6.36L196.30 6.36Q196.30 4.85 195.76 3.92Q195.22 3 194.02 3L194.02 3Q192.87 3 192.28 3.92Q191.70 4.85 191.70 6.36ZM211.02 0.98L210.49 3.72Q210.20 3.65 209.80 3.58Q209.41 3.50 209 3.44Q208.59 3.38 208.21 3.36Q207.82 3.34 207.56 3.34L207.56 3.34Q206.94 3.34 206.34 3.40Q205.74 3.46 205.11 3.62L205.11 3.62L205.11 12L202.14 12L202.14 1.46Q203.31 1.03 204.55 0.77Q205.78 0.50 207.44 0.50L207.44 0.50Q207.68 0.50 208.12 0.53Q208.57 0.55 209.07 0.61Q209.58 0.67 210.09 0.76Q210.61 0.84 211.02 0.98L211.02 0.98Z"/>
</g>
</svg>