<?xml version="1.0" encoding="UTF-8"?>
<svg height="26" width="167.39999999999998" version="1.1" xmlns="http://www.w3.org/2000/svg"><!--Created by Josélio de S. C. Júnior - 2021 - https://github.com/joseliojunior -->
<rect
    height="24"
    width="165.39999999999998"
    rx="1"
    ry="1"
    x="1" y="1"
    fill="#0a66c2"
    stroke="#ffffff"
    stroke-width="1" />
<g transform="translate(0, 8)">
    <path transform="translate(12, -10)" fill="#ffffff"
    d="M20.447 20.452h-3.554v-5.569c0-1.328-.027-3.037-1.852-3.037-1.853 0-2.136 1.445-2.136 2.939v5.667H9.351V9h3.414v1.561h.046c.477-.9 1.637-1.85 3.37-1.85 3.601 0 4.267 2.37 4.267 5.455v6.286zM5.337 7.433c-1.144 0-2.063-.926-2.063-2.065 0-1.138.92-2.063 2.063-2.063 1.14 0 2.064.925 2.064 2.063 0 1.139-.925 2.065-2.064 2.065zm1.782 13.019H3.555V9h3.564v11.452zM22.225 0H1.771C.792 0 0 .774 0 1.729v20.542C0 23.227.792 24 1.771 24h20.451C23.2 24 24 23.227 24 22.271V1.729C24 .774 23.2 0 22.222 0h.003z"/>
    <path fill="#ffffff" d="M51.01 0.10L51.01 6.69Q51.01 7.41 50.82 8.05Q50.64 8.69 50.22 9.17Q49.79 9.65 49.12 9.93Q48.45 10.21 47.49 10.21L47.49 10.21Q46.48 10.21 45.81 9.95Q45.14 9.70 44.67 9.33L44.67 9.33L45.42 7.76Q45.82 8.02 46.31 8.26Q46.80 8.50 47.31 8.50L47.31 8.50Q48.08 8.50 48.55 8.09Q49.02 7.68 49.02 6.58L49.02 6.58L49.02 1.73L45.71 1.73L45.71 0.10L51.01 0.10ZM59.55 6.22L59.55 6.22Q59.55 7.12 59.30 7.85Q59.04 8.58 58.58 9.10Q58.11 9.63 57.46 9.92Q56.82 10.21 56.02 10.21L56.02 10.21Q55.22 10.21 54.57 9.92Q53.92 9.63 53.45 9.10Q52.98 8.58 52.72 7.85Q52.46 7.12 52.46 6.22L52.46 6.22Q52.46 5.34 52.73 4.62Q52.99 3.89 53.46 3.37Q53.94 2.85 54.59 2.57Q55.25 2.29 56.02 2.29L56.02 2.29Q56.80 2.29 57.45 2.57Q58.10 2.85 58.57 3.37Q59.04 3.89 59.30 4.62Q59.55 5.34 59.55 6.22ZM54.46 6.24L54.46 6.24Q54.46 7.25 54.82 7.87Q55.18 8.50 55.98 8.50L55.98 8.50Q56.75 8.50 57.14 7.87Q57.54 7.25 57.54 6.24L57.54 6.24Q57.54 5.23 57.18 4.62Q56.82 4 56.02 4L56.02 4Q55.25 4 54.86 4.62Q54.46 5.23 54.46 6.24ZM63.65 8.51L63.65 8.51Q64.37 8.51 64.75 8.41Q65.14 8.30 65.14 7.98L65.14 7.98Q65.14 7.78 65.02 7.63Q64.90 7.49 64.68 7.38Q64.46 7.28 64.18 7.18Q63.90 7.09 63.60 6.99L63.60 6.99Q63.17 6.86 62.72 6.70Q62.27 6.53 61.90 6.27Q61.54 6.02 61.30 5.62Q61.06 5.23 61.06 4.64L61.06 4.64Q61.06 4.16 61.24 3.74Q61.42 3.31 61.82 2.98Q62.21 2.66 62.82 2.47Q63.42 2.29 64.27 2.29L64.27 2.29Q65.01 2.29 65.64 2.40Q66.27 2.51 66.74 2.72L66.74 2.72L66.43 4.38Q66.16 4.30 65.58 4.12Q65.01 3.94 64.29 3.94L64.29 3.94Q63.54 3.94 63.27 4.12Q63.01 4.30 63.01 4.51L63.01 4.51Q63.01 4.69 63.13 4.82Q63.25 4.96 63.45 5.07Q63.65 5.18 63.91 5.29Q64.18 5.39 64.48 5.49L64.48 5.49Q64.91 5.63 65.38 5.81Q65.84 5.98 66.22 6.25Q66.59 6.51 66.83 6.92Q67.07 7.33 67.07 7.92L67.07 7.92Q67.07 8.38 66.90 8.80Q66.72 9.22 66.31 9.52Q65.90 9.82 65.25 10Q64.59 10.18 63.63 10.18L63.63 10.18Q62.66 10.18 61.97 9.95Q61.28 9.73 60.86 9.55L60.86 9.55L61.17 7.90Q61.73 8.13 62.36 8.32Q62.99 8.51 63.65 8.51ZM68.50 6.30L68.50 6.30Q68.50 5.31 68.80 4.56Q69.10 3.81 69.60 3.30Q70.10 2.80 70.74 2.54Q71.38 2.29 72.05 2.29L72.05 2.29Q73.71 2.29 74.58 3.27Q75.44 4.26 75.44 6.14L75.44 6.14Q75.44 6.34 75.43 6.54Q75.42 6.75 75.41 6.88L75.41 6.88L70.53 6.88Q70.53 7.62 71.14 8.04Q71.74 8.46 72.70 8.46L72.70 8.46Q73.30 8.46 73.83 8.34Q74.37 8.21 74.74 8.08L74.74 8.08L75.01 9.76Q74.50 9.94 73.92 10.06Q73.34 10.18 72.62 10.18L72.62 10.18Q71.66 10.18 70.90 9.93Q70.14 9.68 69.61 9.19Q69.07 8.70 68.78 7.98Q68.50 7.26 68.50 6.30ZM70.53 5.52L73.54 5.52Q73.54 5.22 73.46 4.94Q73.38 4.66 73.20 4.43Q73.02 4.21 72.75 4.07Q72.48 3.94 72.08 3.94L72.08 3.94Q71.70 3.94 71.42 4.06Q71.14 4.19 70.95 4.42Q70.77 4.64 70.66 4.93Q70.56 5.22 70.53 5.52L70.53 5.52ZM73.10-1.06L74.08 0.45L71.30 1.79L70.58 0.72L73.10-1.06ZM83.22 8.10L83.47 9.68Q83.42 9.71 83.26 9.79Q83.09 9.87 82.82 9.96Q82.54 10.05 82.15 10.11Q81.76 10.18 81.26 10.18L81.26 10.18Q79.90 10.18 79.28 9.37Q78.66 8.56 78.66 7.01L78.66 7.01L78.66 0.62L76.58 0.62L76.58-1.01L80.62-1.01L80.62 7.15Q80.62 7.92 80.93 8.19Q81.23 8.46 81.70 8.46L81.70 8.46Q82.29 8.46 82.69 8.30Q83.09 8.14 83.22 8.10L83.22 8.10ZM88.54 0.32L88.54 0.32Q88.54 0.90 88.18 1.23Q87.81 1.57 87.30 1.57L87.30 1.57Q86.78 1.57 86.42 1.23Q86.06 0.90 86.06 0.32L86.06 0.32Q86.06-0.27 86.42-0.61Q86.78-0.94 87.30-0.94L87.30-0.94Q87.81-0.94 88.18-0.61Q88.54-0.27 88.54 0.32ZM91.22 8.10L91.47 9.68Q90.86 9.97 90.33 10.07Q89.79 10.18 89.34 10.18L89.34 10.18Q88.58 10.18 88.06 9.95Q87.54 9.73 87.22 9.30Q86.91 8.88 86.78 8.27Q86.66 7.66 86.66 6.88L86.66 6.88L86.66 4.11L84.58 4.11L84.58 2.48L88.62 2.48L88.62 7.14Q88.62 7.81 88.87 8.14Q89.12 8.46 89.70 8.46L89.70 8.46Q89.97 8.46 90.35 8.39Q90.74 8.32 91.22 8.10L91.22 8.10ZM99.55 6.22L99.55 6.22Q99.55 7.12 99.30 7.85Q99.04 8.58 98.58 9.10Q98.11 9.63 97.46 9.92Q96.82 10.21 96.02 10.21L96.02 10.21Q95.22 10.21 94.57 9.92Q93.92 9.63 93.45 9.10Q92.98 8.58 92.72 7.85Q92.46 7.12 92.46 6.22L92.46 6.22Q92.46 5.34 92.73 4.62Q92.99 3.89 93.46 3.37Q93.94 2.85 94.59 2.57Q95.25 2.29 96.02 2.29L96.02 2.29Q96.80 2.29 97.45 2.57Q98.10 2.85 98.57 3.37Q99.04 3.89 99.30 4.62Q99.55 5.34 99.55 6.22ZM94.46 6.24L94.46 6.24Q94.46 7.25 94.82 7.87Q95.18 8.50 95.98 8.50L95.98 8.50Q96.75 8.50 97.14 7.87Q97.54 7.25 97.54 6.24L97.54 6.24Q97.54 5.23 97.18 4.62Q96.82 4 96.02 4L96.02 4Q95.25 4 94.86 4.62Q94.46 5.23 94.46 6.24ZM115.01 0.10L115.01 6.69Q115.01 7.41 114.82 8.05Q114.64 8.69 114.22 9.17Q113.79 9.65 113.12 9.93Q112.45 10.21 111.49 10.21L111.49 10.21Q110.48 10.21 109.81 9.95Q109.14 9.70 108.67 9.33L108.67 9.33L109.42 7.76Q109.82 8.02 110.31 8.26Q110.80 8.50 111.31 8.50L111.31 8.50Q112.08 8.50 112.55 8.09Q113.02 7.68 113.02 6.58L113.02 6.58L113.02 1.73L109.71 1.73L109.71 0.10L115.01 0.10ZM123.01 2.48L123.01 9.74Q122.46 9.89 121.69 10.03Q120.91 10.18 120 10.18L120 10.18Q119.07 10.18 118.48 9.92Q117.89 9.66 117.54 9.19Q117.20 8.72 117.07 8.08Q116.94 7.44 116.94 6.67L116.94 6.67L116.94 2.48L118.91 2.48L118.91 6.42Q118.91 7.46 119.16 7.96Q119.41 8.46 120.13 8.46L120.13 8.46Q120.58 8.46 121.02 8.38L121.02 8.38L121.02 2.48L123.01 2.48ZM120.77-1.06L121.74 0.45L118.96 1.79L118.24 0.72L120.77-1.06ZM125.01 10L125.01 2.72Q125.54 2.58 126.31 2.45Q127.09 2.32 128 2.32L128 2.32Q128.90 2.32 129.49 2.57Q130.08 2.82 130.42 3.27Q130.77 3.73 130.91 4.36Q131.06 4.99 131.06 5.76L131.06 5.76L131.06 10L129.09 10L129.09 6.02Q129.09 4.96 128.85 4.50Q128.61 4.03 127.87 4.03L127.87 4.03Q127.65 4.03 127.43 4.05Q127.22 4.06 126.98 4.10L126.98 4.10L126.98 10L125.01 10ZM136.54 0.32L136.54 0.32Q136.54 0.90 136.18 1.23Q135.81 1.57 135.30 1.57L135.30 1.57Q134.78 1.57 134.42 1.23Q134.06 0.90 134.06 0.32L134.06 0.32Q134.06-0.27 134.42-0.61Q134.78-0.94 135.30-0.94L135.30-0.94Q135.81-0.94 136.18-0.61Q136.54-0.27 136.54 0.32ZM139.22 8.10L139.47 9.68Q138.86 9.97 138.33 10.07Q137.79 10.18 137.34 10.18L137.34 10.18Q136.58 10.18 136.06 9.95Q135.54 9.73 135.22 9.30Q134.91 8.88 134.78 8.27Q134.66 7.66 134.66 6.88L134.66 6.88L134.66 4.11L132.58 4.11L132.58 2.48L136.62 2.48L136.62 7.14Q136.62 7.81 136.87 8.14Q137.12 8.46 137.70 8.46L137.70 8.46Q137.97 8.46 138.35 8.39Q138.74 8.32 139.22 8.10L139.22 8.10ZM147.55 6.22L147.55 6.22Q147.55 7.12 147.30 7.85Q147.04 8.58 146.58 9.10Q146.11 9.63 145.46 9.92Q144.82 10.21 144.02 10.21L144.02 10.21Q143.22 10.21 142.57 9.92Q141.92 9.63 141.45 9.10Q140.98 8.58 140.72 7.85Q140.46 7.12 140.46 6.22L140.46 6.22Q140.46 5.34 140.73 4.62Q140.99 3.89 141.46 3.37Q141.94 2.85 142.59 2.57Q143.25 2.29 144.02 2.29L144.02 2.29Q144.80 2.29 145.45 2.57Q146.10 2.85 146.57 3.37Q147.04 3.89 147.30 4.62Q147.55 5.34 147.55 6.22ZM142.46 6.24L142.46 6.24Q142.46 7.25 142.82 7.87Q143.18 8.50 143.98 8.50L143.98 8.50Q144.75 8.50 145.14 7.87Q145.54 7.25 145.54 6.24L145.54 6.24Q145.54 5.23 145.18 4.62Q144.82 4 144.02 4L144.02 4Q143.25 4 142.86 4.62Q142.46 5.23 142.46 6.24ZM155.34 2.66L154.99 4.48Q154.80 4.43 154.54 4.38Q154.27 4.34 154 4.30Q153.73 4.26 153.47 4.24Q153.22 4.22 153.04 4.22L153.04 4.22Q152.62 4.22 152.22 4.26Q151.82 4.30 151.41 4.42L151.41 4.42L151.41 10L149.42 10L149.42 2.98Q150.21 2.69 151.03 2.51Q151.86 2.34 152.96 2.34L152.96 2.34Q153.12 2.34 153.42 2.35Q153.71 2.37 154.05 2.41Q154.38 2.45 154.73 2.50Q155.07 2.56 155.34 2.66L155.34 2.66Z"/>
</g>
</svg>