<?xml version="1.0" encoding="UTF-8"?><svg width="7.8895mm" height="7.8895mm" version="1.1" viewBox="0 0 7.8895016 7.8895016" xmlns="http://www.w3.org/2000/svg"><rect y="8.8818e-16" width="7.8895" height="7.8895" ry=".86863" fill="#000080" fill-rule="evenodd"/><path d="m0.86994 3.5153-0.072-0.010001c-0.0127 0.091-0.0217 0.18389-0.0267 0.27543l0.0728 4e-3c5e-3 -0.09 0.0135-0.18044 0.0259-0.26987zm0.99377-1.8754-0.0487-0.0542c-0.0683 0.0614-0.13467 0.127-0.19738 0.19421l0.0534 0.0497c0.0611-0.0656 0.12595-0.12965 0.19262-0.18971zm0.43207-0.32543-0.0386-0.0622c-0.0783 0.0492-0.15505 0.10186-0.22834 0.15716l0.0439 0.0579c0.0714-0.0537 0.14658-0.10556 0.22305-0.15292zm-1.0438 4.3154c0.0489 0.0786 0.1016 0.15505 0.15689 0.22834l0.0582-0.0434c-0.0542-0.0717-0.10556-0.14684-0.15345-0.2233zm-0.18442-0.52044-0.0675 0.0275c0.0341 0.0841 0.0725 0.16801 0.11404 0.2495l1e-3 3e-3 0.0648-0.0331-1e-3 -3e-3c-0.0405-0.0796-0.0781-0.16166-0.11139-0.24395zm-0.21934-1.8767 0.0712 0.0167c0.0201-0.0878 0.0445-0.17568 0.072-0.26088l-0.0691-0.023c-0.0286 0.0878-0.0534 0.1778-0.0741 0.26722zm-6e-3 0.82312-0.0728 3e-3c3e-3 0.0921 0.0106 0.18494 0.022 0.27596l0.0722-9e-3c-0.0111-0.0889-0.0183-0.17992-0.0214-0.26988zm-5e-3 0.55192c0.0193 0.09 0.0429 0.18045 0.0699 0.26829l0.0696-0.021201c-0.0265-0.086299-0.0495-0.17409-0.0683-0.26193zm2.9943-3.7653-3e-3 -0.0728c-0.0921 3e-3 -0.18495 0.0103-0.27623 0.0217l9e-3 0.0722c0.0894-0.0109 0.17992-0.018 0.26987-0.0212zm3.0819 2.1937c0.0265 0.0863 0.0492 0.17462 0.0677 0.26247l0.0714-0.0156c-0.019-0.09-0.0423-0.18045-0.0693-0.26829zm-1.4817-1.8989c-0.0818-0.0434-0.1659-0.0831-0.25056-0.11879l-0.0283 0.0667c0.0831 0.0352 0.16536 0.0744 0.245 0.11615zm-0.51012-0.21616c-0.0878-0.0278-0.17727-0.0526-0.26723-0.0733l-0.0167 0.0709c0.0878 0.0201 0.17569 0.0444 0.26141 0.0722zm-2.3863 0.25744c0.0789-0.0397 0.16034-0.077 0.24236-0.1106l-0.0275-0.0672c-0.0839 0.0336-0.16722 0.072-0.24792 0.11324l-4e-3 2e-3 0.0331 0.0646zm4.5119 2.6572 0.0728-3e-3a3.1213 3.1213 0 0 0 -0.0217 -0.27649l-0.0722 9e-3c0.0109 0.0894 0.018 0.18045 0.0212 0.27041zm-2.6651-3.0382c-0.0915-0.0124-0.18415-0.0212-0.27596-0.0259l-4e-3 0.0722c0.0897 5e-3 0.1807 0.0135 0.2696 0.0259zm-1.0874 0.11165-0.0153-0.0714c-0.09 0.019-0.18018 0.0423-0.26828 0.0699l0.0214 0.0693c0.086-0.0262 0.17435-0.049 0.26219-0.0677zm-2.0169 1.3076 0.0611 0.0397c0.049-0.0754 0.1016-0.14975 0.15664-0.22066l-0.0574-0.045c-0.0564 0.073-0.11033 0.14896-0.16034 0.22595zm-0.25876 0.48922 0.0669 0.0283c0.0349-0.0828 0.0741-0.16536 0.11615-0.24448l-0.0643-0.0339c-0.0431 0.0812-0.0831 0.16536-0.11879 0.25003zm4.572 3.8695 0.0384 0.0619c0.078-0.0492 0.15504-0.10186 0.22833-0.15716l-0.0434-0.0579c-0.072 0.054-0.14737 0.10583-0.22331 0.15319zm0.80036-0.72072 0.0574 0.045c0.0569-0.0722 0.1106-0.14843 0.1606-0.22595l-0.0609-0.0392c-0.0492 0.0754-0.10186 0.14923-0.15716 0.22014zm-0.36856 0.39581 0.0487 0.0537c0.0683-0.0608 0.13494-0.12673 0.19738-0.19367l-0.0532-0.0497c-0.0609 0.0656-0.12621 0.12911-0.19288 0.1897zm0.66251-0.84957 0.0646 0.0341c0.0429-0.0812 0.0831-0.16537 0.1188-0.25003l-0.0672-0.0283a2.9819 2.9819 0 0 1 -0.11615 0.24421zm0.33285-1.0253 0.0722 0.0103c0.013-0.0915 0.0217-0.18388 0.027-0.27596l-0.0728-4e-3c-5e-3 0.0894-0.0135 0.18045-0.0265 0.26935zm-0.12197 0.52705 0.0699 0.022799c0.0283-0.0878 0.0532-0.17727 0.0738-0.26723l-0.0709-0.016701c-0.0204 0.0881-0.0447 0.17595-0.0728 0.26114zm-0.18601-2.3677c0.0408 0.0802 0.0786 0.16325 0.11219 0.24659l0.0677-0.0275c-0.0347-0.0852-0.0733-0.17012-0.11536-0.25214zm-3.7457 4.4307c0.0876 0.0283 0.17727 0.0532 0.26696 0.0738l0.0164-0.0709c-0.0876-0.0201-0.17541-0.0445-0.26087-0.0722zm0.53948 0.12462c0.0913 0.012999 0.18415 0.021701 0.27596 0.027l4e-3 -0.0728c-0.0897-5e-3 -0.18044-0.013499-0.2696-0.0259zm1.8497-0.381c-0.0802 0.0408-0.16219 0.0786-0.24501 0.11218l0.0275 0.0677c0.0841-0.0347 0.16907-0.0728 0.25056-0.11483l1e-3 -5.292e-4 -0.0325-0.0651zm-3.3636-0.25982c0.0725 0.0564 0.1487 0.11059 0.22596 0.16007l0.0394-0.0608c-0.0754-0.0487-0.14949-0.10187-0.2204-0.15664zm2.0648 0.59743 2e-3 0.0728c0.0921-4e-3 0.18494-0.0108 0.27649-0.022201l-9e-3 -0.0717c-0.0889 0.010901-0.17992 0.018-0.26961 0.021201zm-1.5999-0.2966c0.0812 0.0429 0.16536 0.0831 0.25029 0.1188l0.0283-0.0672c-0.0828-0.0352-0.1651-0.0738-0.24447-0.11615zm-0.86969-0.67813c0.0617 0.0683 0.127 0.13494 0.1942 0.19738l0.0497-0.0532c-0.0659-0.0608-0.12964-0.12621-0.1897-0.19288zm3.0062 0.90858 0.0156 0.0714c0.09-0.0196 0.17992-0.0429 0.26829-0.0704l-0.0217-0.0693c-0.086 0.026199-0.17436 0.0489-0.2622 0.0683zm1.782-6.177a0.71147 0.71147 0 1 0 0 1.4229 0.71147 0.71147 0 1 0 0 -1.4229zm-1.5494 4.0529c0 0.12462 0.0831 0.17462 0.22543 0.17462 0.17727 0 0.34316-0.10477 0.34316-0.26881v-0.17066c-0.0609 0.0283-0.10028 0.0373-0.29289 0.0635-0.19447 0.0288-0.2757 0.081-0.2757 0.20135zm-0.87947-3.3414c-1.3414 0-2.4289 1.0872-2.4289 2.4289 0 1.3409 1.0874 2.4289 2.4289 2.4289 1.3414 0 2.4289-1.0877 2.4289-2.4289 0-1.3414-1.0874-2.4289-2.4289-2.4289zm-0.65802 3.6433h-0.99007v-1.5936h0.20346v1.4145h0.78687v0.17913zm1.0927 0h-0.16378v-0.17727c-0.10716 0.15081-0.21458 0.20981-0.38259 0.20981-0.22304 0-0.36512-0.1225-0.36512-0.31274v-0.86545h0.1815v0.79375c0 0.13758 0.0918 0.2249 0.23627 0.2249 0.19024 0 0.31248-0.15293 0.31248-0.38656v-0.63209h0.1815v1.1456zm-0.14023-2.2207c0-0.39264 0.31882-0.71147 0.71146-0.71147s0.7112 0.31883 0.7112 0.71147-0.31829 0.7112-0.7112 0.7112-0.71146-0.31829-0.71146-0.7112zm1.4729 2.0786v0.13758c-0.059 0.0156-0.0873 0.0196-0.12462 0.0196-0.09 0-0.16854-0.063-0.18812-0.15081-0.1008 0.10742-0.24288 0.16853-0.3892 0.16853-0.23204 0-0.37624-0.1225-0.37624-0.3302 0-0.13943 0.0677-0.24235 0.20109-0.29712 0.0704-0.0283 0.10954-0.0373 0.3675-0.0698 0.1442-0.017499 0.19024-0.0505 0.19024-0.127v-0.0482c0-0.109-0.0921-0.17065-0.25584-0.17065-0.17066 0-0.25321 0.0635-0.26883 0.20373h-0.18335c0.0109-0.26459 0.18151-0.37148 0.45878-0.37148 0.28205 0 0.43048 0.10901 0.43048 0.31274v0.63817c0 0.0569 0.0352 0.0894 0.0987 0.0894 0.0109-5.292e-4 0.0196-5.292e-4 0.0394-4e-3z" fill="#4d4dff" stroke-width=".26458"/></svg>