<?xml version="1.0" encoding="UTF-8"?>
<svg width="7.8895mm" height="7.8895mm" version="1.1" viewBox="0 0 7.8895016 7.8895016" xmlns="http://www.w3.org/2000/svg" xmlns:cc="http://creativecommons.org/ns#" xmlns:dc="http://purl.org/dc/elements/1.1/" xmlns:rdf="http://www.w3.org/1999/02/22-rdf-syntax-ns#">
<rect x="8.1884e-7" y="8.1884e-7" width="7.8895" height="7.8895" ry=".86863" fill="#b07219" fill-rule="evenodd"/>
<path d="m3.1116 5.6805s-0.24262 0.14129 0.17277 0.18891c0.50324 0.057679 0.76041 0.049477 1.3147-0.055827 0 0 0.14605 0.091546 0.34952 0.17092-1.2433 0.53261-2.8133-0.031221-1.837-0.30401m-0.15214-0.69506s-0.27199 0.20135 0.1434 0.24448c0.53763 0.055298 0.96202 0.06006 1.6968-0.081492 0 0 0.1016 0.10292 0.26114 0.15928-1.5026 0.43947-3.1769 0.034396-2.1013-0.32226m1.2806-1.1795c0.30639 0.35269-0.08043 0.67019-0.08043 0.67019s0.77761-0.40164 0.42042-0.90435c-0.33364-0.46884-0.58949-0.70168 0.7956-1.505 0-2.646e-4 -2.1738 0.54266-1.1356 1.7391m1.6441 2.3889s0.17965 0.1479-0.19764 0.2622c-0.71755 0.21749-2.9866 0.28284-3.6166 0.00873-0.22649-0.098688 0.19844-0.23548 0.33178-0.26405 0.13944-0.030162 0.21908-0.024606 0.21908-0.024606-0.25215-0.17754-1.6288 0.34846-0.69929 0.49927 2.5347 0.4109 4.6202-0.18521 3.9627-0.48154m-2.6559-1.9299s-1.1541 0.27411-0.40852 0.37359c0.31459 0.042069 0.94218 0.032544 1.5266-0.016404 0.47784-0.040217 0.95726-0.12621 0.95726-0.12621s-0.16854 0.071967-0.29051 0.15531c-1.1718 0.30824-3.4359 0.16484-2.7839-0.15028 0.55086-0.26617 0.99907-0.23601 0.99907-0.23601m2.0701 1.1573c1.1914-0.61913 0.64056-1.2142 0.25612-1.1337-0.09393 0.019579-0.13626 0.036512-0.13626 0.036512s0.03493-0.054769 0.10186-0.078581c0.76068-0.26749 1.3457 0.78872-0.24553 1.207 0-2.645e-4 0.01852-0.016404 0.02381-0.031221m-0.71834-4.6524s0.65987 0.65987-0.62574 1.6748c-1.0308 0.81412-0.23495 1.2785-2.64e-4 1.8087-0.60166-0.54319-1.0433-1.0208-0.74718-1.4655 0.43498-0.65326 1.6396-0.9697 1.3732-2.018m-1.2348 6.3299c1.1435 0.07329 2.8996-0.040481 2.9411-0.58155 0 0-0.0799 0.20505-0.94509 0.36804-0.97578 0.18362-2.1799 0.16219-2.8937 0.04445 0-2.646e-4 0.14632 0.12091 0.89773 0.16907" stroke-width=".26458"/>
</svg>
