<?xml version="1.0" encoding="UTF-8"?>
<svg width="7.8895mm" height="7.8895mm" version="1.1" viewBox="0 0 7.8895002 7.8895002" xmlns="http://www.w3.org/2000/svg" xmlns:cc="http://creativecommons.org/ns#" xmlns:dc="http://purl.org/dc/elements/1.1/" xmlns:rdf="http://www.w3.org/1999/02/22-rdf-syntax-ns#">
<rect x="1.0588e-22" width="7.8895" height="7.8895" ry=".86863" fill="#083fa1" fill-rule="evenodd"/>
<path d="m6.662 5.8987h-5.4345a0.45773 0.45773 0 0 1 -0.45773 -0.45773v-2.9924a0.45773 0.45773 0 0 1 0.45773 -0.45773h5.4345a0.45773 0.45773 0 0 1 0.45773 0.45773v2.9919a0.45773 0.45773 0 0 1 -0.45773 0.45799zm-4.3659-0.91599v-1.1906l0.61066 0.76332 0.61039-0.76332v1.1906h0.61066v-2.0757h-0.61066l-0.61039 0.76332-0.61066-0.76332h-0.61092v2.0762zm4.0913-1.038h-0.61092v-1.038h-0.61039v1.038h-0.61066l0.91572 1.0687z" fill="#94b9fa" stroke-width=".26458"/>
</svg>
