<?xml version="1.0" encoding="UTF-8"?>
<svg height="26" width="159.3" version="1.1" xmlns="http://www.w3.org/2000/svg"><!--Created by Josélio de S. C. Júnior - 2021 - https://github.com/joseliojunior -->
<rect
    height="24"
    width="157.3"
    rx="12"
    ry="12"
    x="1" y="1"
    fill="#0d1117"
    stroke="#b1c2d9"
    stroke-width="1" />
<g transform="translate(0, 8)">
    <path transform="translate(12, -10)" fill="#b1c2d9"
    d="M12 .297c-6.63 0-12 5.373-12 12 0 5.303 3.438 9.8 8.205 11.385.6.113.82-.258.82-.577 0-.285-.01-1.04-.015-2.04-3.338.724-4.042-1.61-4.042-1.61C4.422 18.07 3.633 17.7 3.633 17.7c-1.087-.744.084-.729.084-.729 1.205.084 1.838 1.236 1.838 1.236 1.07 1.835 2.809 1.305 3.495.998.108-.776.417-1.305.76-1.605-2.665-.3-5.466-1.332-5.466-5.93 0-1.31.465-2.38 1.235-3.22-.135-.303-.54-1.523.105-3.176 0 0 1.005-.322 3.3 1.23.96-.267 1.98-.399 3-.405 1.02.006 2.04.138 3 .405 2.28-1.552 3.285-1.23 3.285-1.23.645 1.653.24 2.873.12 3.176.765.84 1.23 1.91 1.23 3.22 0 4.61-2.805 5.625-5.475 5.92.42.36.81 1.096.81 2.22 0 1.606-.015 2.896-.015 3.286 0 .315.21.69.825.57C20.565 22.092 24 17.592 24 12.297c0-6.627-5.373-12-12-12"/>
    <path fill="#b1c2d9" d="M50.40 2.48L50.40 9.50Q50.40 10.42 50.18 11.03Q49.95 11.65 49.56 12.02Q49.17 12.40 48.63 12.56Q48.10 12.72 47.47 12.72L47.47 12.72Q46.70 12.72 46.05 12.53Q45.39 12.34 44.78 12.03L44.78 12.03L45.39 10.37Q45.79 10.59 46.36 10.79Q46.93 10.99 47.39 10.99L47.39 10.99Q47.89 10.99 48.16 10.70Q48.43 10.40 48.43 9.60L48.43 9.60L48.43 4.11L45.39 4.11L45.39 2.48L50.40 2.48ZM50.16 0.32L50.16 0.32Q50.16 0.90 49.79 1.23Q49.42 1.57 48.91 1.57L48.91 1.57Q48.40 1.57 48.04 1.23Q47.68 0.90 47.68 0.32L47.68 0.32Q47.68-0.27 48.04-0.61Q48.40-0.94 48.91-0.94L48.91-0.94Q49.42-0.94 49.79-0.61Q50.16-0.27 50.16 0.32ZM59.55 6.22L59.55 6.22Q59.55 7.12 59.30 7.85Q59.04 8.58 58.58 9.10Q58.11 9.63 57.46 9.92Q56.82 10.21 56.02 10.21L56.02 10.21Q55.22 10.21 54.57 9.92Q53.92 9.63 53.45 9.10Q52.98 8.58 52.72 7.85Q52.46 7.12 52.46 6.22L52.46 6.22Q52.46 5.34 52.73 4.62Q52.99 3.89 53.46 3.37Q53.94 2.85 54.59 2.57Q55.25 2.29 56.02 2.29L56.02 2.29Q56.80 2.29 57.45 2.57Q58.10 2.85 58.57 3.37Q59.04 3.89 59.30 4.62Q59.55 5.34 59.55 6.22ZM54.46 6.24L54.46 6.24Q54.46 7.25 54.82 7.87Q55.18 8.50 55.98 8.50L55.98 8.50Q56.75 8.50 57.14 7.87Q57.54 7.25 57.54 6.24L57.54 6.24Q57.54 5.23 57.18 4.62Q56.82 4 56.02 4L56.02 4Q55.25 4 54.86 4.62Q54.46 5.23 54.46 6.24ZM63.65 8.51L63.65 8.51Q64.37 8.51 64.75 8.41Q65.14 8.30 65.14 7.98L65.14 7.98Q65.14 7.78 65.02 7.63Q64.90 7.49 64.68 7.38Q64.46 7.28 64.18 7.18Q63.90 7.09 63.60 6.99L63.60 6.99Q63.17 6.86 62.72 6.70Q62.27 6.53 61.90 6.27Q61.54 6.02 61.30 5.62Q61.06 5.23 61.06 4.64L61.06 4.64Q61.06 4.16 61.24 3.74Q61.42 3.31 61.82 2.98Q62.21 2.66 62.82 2.47Q63.42 2.29 64.27 2.29L64.27 2.29Q65.01 2.29 65.64 2.40Q66.27 2.51 66.74 2.72L66.74 2.72L66.43 4.38Q66.16 4.30 65.58 4.12Q65.01 3.94 64.29 3.94L64.29 3.94Q63.54 3.94 63.27 4.12Q63.01 4.30 63.01 4.51L63.01 4.51Q63.01 4.69 63.13 4.82Q63.25 4.96 63.45 5.07Q63.65 5.18 63.91 5.29Q64.18 5.39 64.48 5.49L64.48 5.49Q64.91 5.63 65.38 5.81Q65.84 5.98 66.22 6.25Q66.59 6.51 66.83 6.92Q67.07 7.33 67.07 7.92L67.07 7.92Q67.07 8.38 66.90 8.80Q66.72 9.22 66.31 9.52Q65.90 9.82 65.25 10Q64.59 10.18 63.63 10.18L63.63 10.18Q62.66 10.18 61.97 9.95Q61.28 9.73 60.86 9.55L60.86 9.55L61.17 7.90Q61.73 8.13 62.36 8.32Q62.99 8.51 63.65 8.51ZM68.50 6.30L68.50 6.30Q68.50 5.31 68.80 4.56Q69.10 3.81 69.60 3.30Q70.10 2.80 70.74 2.54Q71.38 2.29 72.05 2.29L72.05 2.29Q73.71 2.29 74.58 3.27Q75.44 4.26 75.44 6.14L75.44 6.14Q75.44 6.34 75.43 6.54Q75.42 6.75 75.41 6.88L75.41 6.88L70.53 6.88Q70.53 7.62 71.14 8.04Q71.74 8.46 72.70 8.46L72.70 8.46Q73.30 8.46 73.83 8.34Q74.37 8.21 74.74 8.08L74.74 8.08L75.01 9.76Q74.50 9.94 73.92 10.06Q73.34 10.18 72.62 10.18L72.62 10.18Q71.66 10.18 70.90 9.93Q70.14 9.68 69.61 9.19Q69.07 8.70 68.78 7.98Q68.50 7.26 68.50 6.30ZM70.53 5.52L73.54 5.52Q73.54 5.22 73.46 4.94Q73.38 4.66 73.20 4.43Q73.02 4.21 72.75 4.07Q72.48 3.94 72.08 3.94L72.08 3.94Q71.70 3.94 71.42 4.06Q71.14 4.19 70.95 4.42Q70.77 4.64 70.66 4.93Q70.56 5.22 70.53 5.52L70.53 5.52ZM83.22 8.10L83.47 9.68Q83.42 9.71 83.26 9.79Q83.09 9.87 82.82 9.96Q82.54 10.05 82.15 10.11Q81.76 10.18 81.26 10.18L81.26 10.18Q79.90 10.18 79.28 9.37Q78.66 8.56 78.66 7.01L78.66 7.01L78.66 0.62L76.58 0.62L76.58-1.01L80.62-1.01L80.62 7.15Q80.62 7.92 80.93 8.19Q81.23 8.46 81.70 8.46L81.70 8.46Q82.29 8.46 82.69 8.30Q83.09 8.14 83.22 8.10L83.22 8.10ZM88.54 0.32L88.54 0.32Q88.54 0.90 88.18 1.23Q87.81 1.57 87.30 1.57L87.30 1.57Q86.78 1.57 86.42 1.23Q86.06 0.90 86.06 0.32L86.06 0.32Q86.06-0.27 86.42-0.61Q86.78-0.94 87.30-0.94L87.30-0.94Q87.81-0.94 88.18-0.61Q88.54-0.27 88.54 0.32ZM91.22 8.10L91.47 9.68Q90.86 9.97 90.33 10.07Q89.79 10.18 89.34 10.18L89.34 10.18Q88.58 10.18 88.06 9.95Q87.54 9.73 87.22 9.30Q86.91 8.88 86.78 8.27Q86.66 7.66 86.66 6.88L86.66 6.88L86.66 4.11L84.58 4.11L84.58 2.48L88.62 2.48L88.62 7.14Q88.62 7.81 88.87 8.14Q89.12 8.46 89.70 8.46L89.70 8.46Q89.97 8.46 90.35 8.39Q90.74 8.32 91.22 8.10L91.22 8.10ZM99.55 6.22L99.55 6.22Q99.55 7.12 99.30 7.85Q99.04 8.58 98.58 9.10Q98.11 9.63 97.46 9.92Q96.82 10.21 96.02 10.21L96.02 10.21Q95.22 10.21 94.57 9.92Q93.92 9.63 93.45 9.10Q92.98 8.58 92.72 7.85Q92.46 7.12 92.46 6.22L92.46 6.22Q92.46 5.34 92.73 4.62Q92.99 3.89 93.46 3.37Q93.94 2.85 94.59 2.57Q95.25 2.29 96.02 2.29L96.02 2.29Q96.80 2.29 97.45 2.57Q98.10 2.85 98.57 3.37Q99.04 3.89 99.30 4.62Q99.55 5.34 99.55 6.22ZM94.46 6.24L94.46 6.24Q94.46 7.25 94.82 7.87Q95.18 8.50 95.98 8.50L95.98 8.50Q96.75 8.50 97.14 7.87Q97.54 7.25 97.54 6.24L97.54 6.24Q97.54 5.23 97.18 4.62Q96.82 4 96.02 4L96.02 4Q95.25 4 94.86 4.62Q94.46 5.23 94.46 6.24ZM106.40 2.48L106.40 9.50Q106.40 10.42 106.18 11.03Q105.95 11.65 105.56 12.02Q105.17 12.40 104.63 12.56Q104.10 12.72 103.47 12.72L103.47 12.72Q102.70 12.72 102.05 12.53Q101.39 12.34 100.78 12.03L100.78 12.03L101.39 10.37Q101.79 10.59 102.36 10.79Q102.93 10.99 103.39 10.99L103.39 10.99Q103.89 10.99 104.16 10.70Q104.43 10.40 104.43 9.60L104.43 9.60L104.43 4.11L101.39 4.11L101.39 2.48L106.40 2.48ZM106.16 0.32L106.16 0.32Q106.16 0.90 105.79 1.23Q105.42 1.57 104.91 1.57L104.91 1.57Q104.40 1.57 104.04 1.23Q103.68 0.90 103.68 0.32L103.68 0.32Q103.68-0.27 104.04-0.61Q104.40-0.94 104.91-0.94L104.91-0.94Q105.42-0.94 105.79-0.61Q106.16-0.27 106.16 0.32ZM115.01 2.48L115.01 9.74Q114.46 9.89 113.69 10.03Q112.91 10.18 112 10.18L112 10.18Q111.07 10.18 110.48 9.92Q109.89 9.66 109.54 9.19Q109.20 8.72 109.07 8.08Q108.94 7.44 108.94 6.67L108.94 6.67L108.94 2.48L110.91 2.48L110.91 6.42Q110.91 7.46 111.16 7.96Q111.41 8.46 112.13 8.46L112.13 8.46Q112.58 8.46 113.02 8.38L113.02 8.38L113.02 2.48L115.01 2.48ZM117.01 10L117.01 2.72Q117.54 2.58 118.31 2.45Q119.09 2.32 120 2.32L120 2.32Q120.90 2.32 121.49 2.57Q122.08 2.82 122.42 3.27Q122.77 3.73 122.91 4.36Q123.06 4.99 123.06 5.76L123.06 5.76L123.06 10L121.09 10L121.09 6.02Q121.09 4.96 120.85 4.50Q120.61 4.03 119.87 4.03L119.87 4.03Q119.65 4.03 119.43 4.05Q119.22 4.06 118.98 4.10L118.98 4.10L118.98 10L117.01 10ZM128.54 0.32L128.54 0.32Q128.54 0.90 128.18 1.23Q127.81 1.57 127.30 1.57L127.30 1.57Q126.78 1.57 126.42 1.23Q126.06 0.90 126.06 0.32L126.06 0.32Q126.06-0.27 126.42-0.61Q126.78-0.94 127.30-0.94L127.30-0.94Q127.81-0.94 128.18-0.61Q128.54-0.27 128.54 0.32ZM131.22 8.10L131.47 9.68Q130.86 9.97 130.33 10.07Q129.79 10.18 129.34 10.18L129.34 10.18Q128.58 10.18 128.06 9.95Q127.54 9.73 127.22 9.30Q126.91 8.88 126.78 8.27Q126.66 7.66 126.66 6.88L126.66 6.88L126.66 4.11L124.58 4.11L124.58 2.48L128.62 2.48L128.62 7.14Q128.62 7.81 128.87 8.14Q129.12 8.46 129.70 8.46L129.70 8.46Q129.97 8.46 130.35 8.39Q130.74 8.32 131.22 8.10L131.22 8.10ZM139.55 6.22L139.55 6.22Q139.55 7.12 139.30 7.85Q139.04 8.58 138.58 9.10Q138.11 9.63 137.46 9.92Q136.82 10.21 136.02 10.21L136.02 10.21Q135.22 10.21 134.57 9.92Q133.92 9.63 133.45 9.10Q132.98 8.58 132.72 7.85Q132.46 7.12 132.46 6.22L132.46 6.22Q132.46 5.34 132.73 4.62Q132.99 3.89 133.46 3.37Q133.94 2.85 134.59 2.57Q135.25 2.29 136.02 2.29L136.02 2.29Q136.80 2.29 137.45 2.57Q138.10 2.85 138.57 3.37Q139.04 3.89 139.30 4.62Q139.55 5.34 139.55 6.22ZM134.46 6.24L134.46 6.24Q134.46 7.25 134.82 7.87Q135.18 8.50 135.98 8.50L135.98 8.50Q136.75 8.50 137.14 7.87Q137.54 7.25 137.54 6.24L137.54 6.24Q137.54 5.23 137.18 4.62Q136.82 4 136.02 4L136.02 4Q135.25 4 134.86 4.62Q134.46 5.23 134.46 6.24ZM147.34 2.66L146.99 4.48Q146.80 4.43 146.54 4.38Q146.27 4.34 146 4.30Q145.73 4.26 145.47 4.24Q145.22 4.22 145.04 4.22L145.04 4.22Q144.62 4.22 144.22 4.26Q143.82 4.30 143.41 4.42L143.41 4.42L143.41 10L141.42 10L141.42 2.98Q142.21 2.69 143.03 2.51Q143.86 2.34 144.96 2.34L144.96 2.34Q145.12 2.34 145.42 2.35Q145.71 2.37 146.05 2.41Q146.38 2.45 146.73 2.50Q147.07 2.56 147.34 2.66L147.34 2.66Z"/>
</g>
</svg>