<?xml version="1.0" encoding="UTF-8"?>
<svg height="34" width="211.29999999999998" version="1.1" xmlns="http://www.w3.org/2000/svg"><!--Created by Josélio de S. C. Júnior - 2021 - https://github.com/joseliojunior -->
<rect
    height="32"
    width="209.29999999999998"
    rx="16"
    ry="16"
    x="1" y="1"
    fill="#0d1117"
    stroke="#b1c2d9"
    stroke-width="1" />
<g transform="translate(0, 12)">
    <path transform="translate(12, -8)" fill="#b1c2d9"
    d="M12 .297c-6.63 0-12 5.373-12 12 0 5.303 3.438 9.8 8.205 11.385.6.113.82-.258.82-.577 0-.285-.01-1.04-.015-2.04-3.338.724-4.042-1.61-4.042-1.61C4.422 18.07 3.633 17.7 3.633 17.7c-1.087-.744.084-.729.084-.729 1.205.084 1.838 1.236 1.838 1.236 1.07 1.835 2.809 1.305 3.495.998.108-.776.417-1.305.76-1.605-2.665-.3-5.466-1.332-5.466-5.93 0-1.31.465-2.38 1.235-3.22-.135-.303-.54-1.523.105-3.176 0 0 1.005-.322 3.3 1.23.96-.267 1.98-.399 3-.405 1.02.006 2.04.138 3 .405 2.28-1.552 3.285-1.23 3.285-1.23.645 1.653.24 2.873.12 3.176.765.84 1.23 1.91 1.23 3.22 0 4.61-2.805 5.625-5.475 5.92.42.36.81 1.096.81 2.22 0 1.606-.015 2.896-.015 3.286 0 .315.21.69.825.57C20.565 22.092 24 17.592 24 12.297c0-6.627-5.373-12-12-12"/>
    <path fill="#b1c2d9" d="M53.60 0.72L53.60 11.26Q53.60 12.62 53.26 13.55Q52.93 14.47 52.34 15.04Q51.75 15.60 50.95 15.84Q50.14 16.08 49.21 16.08L49.21 16.08Q48.06 16.08 47.07 15.79Q46.09 15.50 45.18 15.05L45.18 15.05L46.09 12.55Q46.69 12.89 47.54 13.19Q48.39 13.49 49.09 13.49L49.09 13.49Q49.83 13.49 50.24 13.04Q50.65 12.60 50.65 11.40L50.65 11.40L50.65 3.17L46.09 3.17L46.09 0.72L53.60 0.72ZM53.24-2.52L53.24-2.52Q53.24-1.66 52.69-1.15Q52.14-0.65 51.37-0.65L51.37-0.65Q50.60-0.65 50.06-1.15Q49.52-1.66 49.52-2.52L49.52-2.52Q49.52-3.41 50.06-3.91Q50.60-4.42 51.37-4.42L51.37-4.42Q52.14-4.42 52.69-3.91Q53.24-3.41 53.24-2.52ZM67.33 6.34L67.33 6.34Q67.33 7.68 66.94 8.77Q66.56 9.86 65.86 10.66Q65.17 11.45 64.20 11.88Q63.22 12.31 62.02 12.31L62.02 12.31Q60.82 12.31 59.85 11.88Q58.88 11.45 58.17 10.66Q57.46 9.86 57.08 8.77Q56.70 7.68 56.70 6.34L56.70 6.34Q56.70 5.02 57.09 3.92Q57.49 2.83 58.20 2.05Q58.90 1.27 59.89 0.85Q60.87 0.43 62.02 0.43L62.02 0.43Q63.20 0.43 64.17 0.85Q65.14 1.27 65.85 2.05Q66.56 2.83 66.94 3.92Q67.33 5.02 67.33 6.34ZM59.70 6.36L59.70 6.36Q59.70 7.87 60.24 8.81Q60.78 9.74 61.98 9.74L61.98 9.74Q63.13 9.74 63.72 8.81Q64.30 7.87 64.30 6.36L64.30 6.36Q64.30 4.85 63.76 3.92Q63.22 3 62.02 3L62.02 3Q60.87 3 60.28 3.92Q59.70 4.85 59.70 6.36ZM73.47 9.77L73.47 9.77Q74.55 9.77 75.13 9.61Q75.70 9.46 75.70 8.98L75.70 8.98Q75.70 8.66 75.52 8.45Q75.34 8.23 75.02 8.08Q74.70 7.92 74.28 7.78Q73.86 7.63 73.40 7.49L73.40 7.49Q72.75 7.30 72.08 7.04Q71.41 6.79 70.86 6.41Q70.30 6.02 69.94 5.44Q69.58 4.85 69.58 3.96L69.58 3.96Q69.58 3.24 69.86 2.60Q70.14 1.97 70.72 1.48Q71.31 0.98 72.22 0.71Q73.14 0.43 74.41 0.43L74.41 0.43Q75.51 0.43 76.46 0.60Q77.41 0.77 78.10 1.08L78.10 1.08L77.65 3.58Q77.24 3.46 76.38 3.18Q75.51 2.90 74.43 2.90L74.43 2.90Q73.30 2.90 72.91 3.18Q72.51 3.46 72.51 3.77L72.51 3.77Q72.51 4.03 72.69 4.24Q72.87 4.44 73.17 4.61Q73.47 4.78 73.87 4.93Q74.26 5.09 74.72 5.23L74.72 5.23Q75.37 5.45 76.06 5.71Q76.76 5.98 77.32 6.37Q77.89 6.77 78.25 7.38Q78.61 7.99 78.61 8.88L78.61 8.88Q78.61 9.58 78.34 10.20Q78.08 10.82 77.47 11.28Q76.86 11.74 75.87 12Q74.89 12.26 73.45 12.26L73.45 12.26Q71.98 12.26 70.95 11.93Q69.92 11.59 69.30 11.33L69.30 11.33L69.75 8.86Q70.59 9.19 71.54 9.48Q72.49 9.77 73.47 9.77ZM80.74 6.46L80.74 6.46Q80.74 4.97 81.20 3.84Q81.66 2.71 82.40 1.96Q83.14 1.20 84.10 0.82Q85.06 0.43 86.07 0.43L86.07 0.43Q88.57 0.43 89.86 1.91Q91.16 3.38 91.16 6.22L91.16 6.22Q91.16 6.50 91.15 6.82Q91.14 7.13 91.11 7.32L91.11 7.32L83.79 7.32Q83.79 8.42 84.70 9.06Q85.62 9.70 87.06 9.70L87.06 9.70Q87.94 9.70 88.75 9.50Q89.55 9.31 90.10 9.12L90.10 9.12L90.51 11.64Q89.74 11.90 88.88 12.08Q88.02 12.26 86.94 12.26L86.94 12.26Q85.50 12.26 84.36 11.89Q83.22 11.52 82.41 10.79Q81.61 10.06 81.18 8.98Q80.74 7.90 80.74 6.46ZM83.79 5.28L88.30 5.28Q88.30 4.82 88.18 4.40Q88.06 3.98 87.80 3.65Q87.54 3.31 87.13 3.11Q86.72 2.90 86.12 2.90L86.12 2.90Q85.54 2.90 85.12 3.10Q84.70 3.29 84.43 3.62Q84.15 3.96 84.00 4.39Q83.84 4.82 83.79 5.28L83.79 5.28ZM102.82 9.14L103.21 11.52Q103.14 11.57 102.88 11.69Q102.63 11.81 102.22 11.94Q101.82 12.07 101.23 12.17Q100.64 12.26 99.90 12.26L99.90 12.26Q97.86 12.26 96.92 11.05Q95.98 9.84 95.98 7.51L95.98 7.51L95.98-2.06L92.86-2.06L92.86-4.51L98.94-4.51L98.94 7.73Q98.94 8.88 99.39 9.29Q99.85 9.70 100.54 9.70L100.54 9.70Q101.43 9.70 102.03 9.46Q102.63 9.22 102.82 9.14L102.82 9.14ZM110.82-2.52L110.82-2.52Q110.82-1.66 110.26-1.15Q109.71-0.65 108.94-0.65L108.94-0.65Q108.18-0.65 107.64-1.15Q107.10-1.66 107.10-2.52L107.10-2.52Q107.10-3.41 107.64-3.91Q108.18-4.42 108.94-4.42L108.94-4.42Q109.71-4.42 110.26-3.91Q110.82-3.41 110.82-2.52ZM114.82 9.14L115.21 11.52Q114.30 11.95 113.49 12.11Q112.69 12.26 112.02 12.26L112.02 12.26Q110.86 12.26 110.08 11.93Q109.30 11.59 108.84 10.96Q108.37 10.32 108.18 9.41Q107.98 8.50 107.98 7.32L107.98 7.32L107.98 3.17L104.86 3.17L104.86 0.72L110.94 0.72L110.94 7.70Q110.94 8.71 111.31 9.20Q111.68 9.70 112.54 9.70L112.54 9.70Q112.95 9.70 113.53 9.59Q114.10 9.48 114.82 9.14L114.82 9.14ZM127.33 6.34L127.33 6.34Q127.33 7.68 126.94 8.77Q126.56 9.86 125.86 10.66Q125.17 11.45 124.20 11.88Q123.22 12.31 122.02 12.31L122.02 12.31Q120.82 12.31 119.85 11.88Q118.88 11.45 118.17 10.66Q117.46 9.86 117.08 8.77Q116.70 7.68 116.70 6.34L116.70 6.34Q116.70 5.02 117.09 3.92Q117.49 2.83 118.20 2.05Q118.90 1.27 119.89 0.85Q120.87 0.43 122.02 0.43L122.02 0.43Q123.20 0.43 124.17 0.85Q125.14 1.27 125.85 2.05Q126.56 2.83 126.94 3.92Q127.33 5.02 127.33 6.34ZM119.70 6.36L119.70 6.36Q119.70 7.87 120.24 8.81Q120.78 9.74 121.98 9.74L121.98 9.74Q123.13 9.74 123.72 8.81Q124.30 7.87 124.30 6.36L124.30 6.36Q124.30 4.85 123.76 3.92Q123.22 3 122.02 3L122.02 3Q120.87 3 120.28 3.92Q119.70 4.85 119.70 6.36ZM137.60 0.72L137.60 11.26Q137.60 12.62 137.26 13.55Q136.93 14.47 136.34 15.04Q135.75 15.60 134.95 15.84Q134.14 16.08 133.21 16.08L133.21 16.08Q132.06 16.08 131.07 15.79Q130.09 15.50 129.18 15.05L129.18 15.05L130.09 12.55Q130.69 12.89 131.54 13.19Q132.39 13.49 133.09 13.49L133.09 13.49Q133.83 13.49 134.24 13.04Q134.65 12.60 134.65 11.40L134.65 11.40L134.65 3.17L130.09 3.17L130.09 0.72L137.60 0.72ZM137.24-2.52L137.24-2.52Q137.24-1.66 136.69-1.15Q136.14-0.65 135.37-0.65L135.37-0.65Q134.60-0.65 134.06-1.15Q133.52-1.66 133.52-2.52L133.52-2.52Q133.52-3.41 134.06-3.91Q134.60-4.42 135.37-4.42L135.37-4.42Q136.14-4.42 136.69-3.91Q137.24-3.41 137.24-2.52ZM150.51 0.72L150.51 11.62Q149.70 11.83 148.53 12.05Q147.37 12.26 146 12.26L146 12.26Q144.61 12.26 143.72 11.88Q142.83 11.50 142.32 10.79Q141.80 10.08 141.61 9.12Q141.42 8.16 141.42 7.01L141.42 7.01L141.42 0.72L144.37 0.72L144.37 6.62Q144.37 8.18 144.74 8.94Q145.11 9.70 146.19 9.70L146.19 9.70Q146.86 9.70 147.54 9.58L147.54 9.58L147.54 0.72L150.51 0.72ZM153.51 12L153.51 1.08Q154.30 0.86 155.47 0.67Q156.63 0.48 158 0.48L158 0.48Q159.34 0.48 160.23 0.85Q161.12 1.22 161.64 1.91Q162.15 2.59 162.37 3.54Q162.58 4.49 162.58 5.64L162.58 5.64L162.58 12L159.63 12L159.63 6.02Q159.63 4.44 159.27 3.74Q158.91 3.05 157.81 3.05L157.81 3.05Q157.47 3.05 157.15 3.07Q156.82 3.10 156.46 3.14L156.46 3.14L156.46 12L153.51 12ZM170.82-2.52L170.82-2.52Q170.82-1.66 170.26-1.15Q169.71-0.65 168.94-0.65L168.94-0.65Q168.18-0.65 167.64-1.15Q167.10-1.66 167.10-2.52L167.10-2.52Q167.10-3.41 167.64-3.91Q168.18-4.42 168.94-4.42L168.94-4.42Q169.71-4.42 170.26-3.91Q170.82-3.41 170.82-2.52ZM174.82 9.14L175.21 11.52Q174.30 11.95 173.49 12.11Q172.69 12.26 172.02 12.26L172.02 12.26Q170.86 12.26 170.08 11.93Q169.30 11.59 168.84 10.96Q168.37 10.32 168.18 9.41Q167.98 8.50 167.98 7.32L167.98 7.32L167.98 3.17L164.86 3.17L164.86 0.72L170.94 0.72L170.94 7.70Q170.94 8.71 171.31 9.20Q171.68 9.70 172.54 9.70L172.54 9.70Q172.95 9.70 173.53 9.59Q174.10 9.48 174.82 9.14L174.82 9.14ZM187.33 6.34L187.33 6.34Q187.33 7.68 186.94 8.77Q186.56 9.86 185.86 10.66Q185.17 11.45 184.20 11.88Q183.22 12.31 182.02 12.31L182.02 12.31Q180.82 12.31 179.85 11.88Q178.88 11.45 178.17 10.66Q177.46 9.86 177.08 8.77Q176.70 7.68 176.70 6.34L176.70 6.34Q176.70 5.02 177.09 3.92Q177.49 2.83 178.20 2.05Q178.90 1.27 179.89 0.85Q180.87 0.43 182.02 0.43L182.02 0.43Q183.20 0.43 184.17 0.85Q185.14 1.27 185.85 2.05Q186.56 2.83 186.94 3.92Q187.33 5.02 187.33 6.34ZM179.70 6.36L179.70 6.36Q179.70 7.87 180.24 8.81Q180.78 9.74 181.98 9.74L181.98 9.74Q183.13 9.74 183.72 8.81Q184.30 7.87 184.30 6.36L184.30 6.36Q184.30 4.85 183.76 3.92Q183.22 3 182.02 3L182.02 3Q180.87 3 180.28 3.92Q179.70 4.85 179.70 6.36ZM199.02 0.98L198.49 3.72Q198.20 3.65 197.80 3.58Q197.41 3.50 197 3.44Q196.59 3.38 196.21 3.36Q195.82 3.34 195.56 3.34L195.56 3.34Q194.94 3.34 194.34 3.40Q193.74 3.46 193.11 3.62L193.11 3.62L193.11 12L190.14 12L190.14 1.46Q191.31 1.03 192.55 0.77Q193.78 0.50 195.44 0.50L195.44 0.50Q195.68 0.50 196.12 0.53Q196.57 0.55 197.07 0.61Q197.58 0.67 198.09 0.76Q198.61 0.84 199.02 0.98L199.02 0.98Z"/>
</g>
</svg>