<?xml version="1.0" encoding="UTF-8"?>
<svg width="47.625mm" height="6.6121mm" version="1.1" viewBox="0 0 47.625 6.6120913" xmlns="http://www.w3.org/2000/svg" xmlns:cc="http://creativecommons.org/ns#" xmlns:dc="http://purl.org/dc/elements/1.1/" xmlns:rdf="http://www.w3.org/1999/02/22-rdf-syntax-ns#" xmlns:xlink="http://www.w3.org/1999/xlink">
<defs>
<linearGradient id="a">
<stop stop-color="#fff" offset="0"/>
<stop stop-color="#fff" stop-opacity="0" offset="1"/>
</linearGradient>
<linearGradient id="c" x1="-83.121" x2="-103.7" y1="171.65" y2="216.55" gradientTransform="matrix(.63495 0 0 .55641 79.531 -116.3)" gradientUnits="userSpaceOnUse" xlink:href="#a"/>
<linearGradient id="b" x1="-54.79" x2="-57.036" y1="202.65" y2="213.39" gradientTransform="matrix(.63495 0 0 .55641 31.906 -122.91)" gradientUnits="userSpaceOnUse" xlink:href="#a"/>
</defs>
<rect width="47.625" height="6.6121" ry="1.041" fill="#00c48a" fill-rule="evenodd"/>
<rect x=".40554" y=".31655" width="46.814" height="5.979" ry=".94131" fill="url(#c)" fill-rule="evenodd"/>
<rect transform="scale(-1)" x="-47.219" y="-6.2955" width="46.814" height="5.979" ry=".94131" fill="url(#b)" fill-rule="evenodd"/>
<g fill="#005341" stroke-width=".27678" aria-label="Projects quick access">
<path d="m4.0939 2.4907q0 0.18019-0.063068 0.35318-0.063068 0.17118-0.18019 0.28831-0.16037 0.15857-0.35859 0.23966-0.19641 0.081087-0.49013 0.081087h-0.43066v0.87394h-0.69195v-2.6831h1.1388q0.25588 0 0.43066 0.045049 0.17659 0.043246 0.31174 0.13154 0.16217 0.10631 0.24687 0.27209 0.086493 0.16578 0.086493 0.39823zm-0.71537 0.016218q0-0.11352-0.061266-0.19461-0.061266-0.08289-0.14235-0.11532-0.10812-0.043247-0.21083-0.046851-0.10271-0.00541-0.2739-0.00541h-0.11893v0.80367h0.19821q0.17659 0 0.29011-0.021623 0.11532-0.021623 0.19281-0.086493 0.066672-0.057662 0.095503-0.13695 0.030633-0.081087 0.030633-0.19641z"/>
<path d="m6.0129 2.9213h-0.057662q-0.041445-0.014416-0.13334-0.021623-0.091899-0.00721-0.15316-0.00721-0.13875 0-0.24506 0.018019t-0.22885 0.061266v1.3551h-0.6487v-2.0236h0.6487v0.29732q0.21443-0.1838 0.373-0.24326 0.15857-0.061266 0.29191-0.061266 0.034237 0 0.077483 0.0018 0.043247 0.0018 0.075681 0.00541z"/>
<path d="m8.4528 3.316q0 0.49914-0.29191 0.78745-0.29011 0.28651-0.81628 0.28651t-0.81808-0.28651q-0.29011-0.28831-0.29011-0.78745 0-0.50274 0.29191-0.78925 0.29372-0.28651 0.81628-0.28651 0.52977 0 0.81808 0.28831 0.29011 0.28831 0.29011 0.78745zm-0.79826 0.49193q0.063068-0.077483 0.093701-0.1856 0.032435-0.10992 0.032435-0.30273 0-0.17839-0.032435-0.29912t-0.090097-0.19281q-0.057662-0.07388-0.13875-0.10451-0.081087-0.030633-0.17479-0.030633-0.093701 0-0.16758 0.025227-0.072078 0.025227-0.13875 0.10091-0.059464 0.070276-0.095503 0.19281-0.034237 0.12253-0.034237 0.30813 0 0.16578 0.030633 0.28831 0.030633 0.12073 0.090097 0.19461 0.057662 0.070276 0.13695 0.10271 0.081087 0.032435 0.1838 0.032435 0.088295 0 0.16758-0.028831 0.081087-0.030633 0.13695-0.10091z"/>
<path d="m9.797 4.3629q0 0.34237-0.21083 0.53337-0.21083 0.19281-0.54238 0.19281-0.17659 0-0.32255-0.016218-0.14416-0.014416-0.21083-0.030633v-0.4649h0.050454q0.054058 0.018019 0.13515 0.030633 0.081087 0.012614 0.12794 0.012614 0.1874 0 0.25588-0.11172 0.068474-0.11172 0.068474-0.3676v-1.3983h-0.38381v-0.43967h1.0325zm0-2.3479h-0.69014v-0.49193h0.69014z"/>
<path d="m12.399 3.4349h-1.4848q0.01441 0.23786 0.18019 0.36399 0.16758 0.12614 0.49193 0.12614 0.20542 0 0.39823-0.073879 0.19281-0.07388 0.30453-0.15857h0.07208v0.52076q-0.21984 0.088295-0.41445 0.12794-0.19461 0.039643-0.43066 0.039643-0.60906 0-0.9334-0.2739-0.32435-0.27389-0.32435-0.78024 0-0.50094 0.30633-0.79285 0.30813-0.29372 0.84331-0.29372 0.49373 0 0.7424 0.25047 0.24867 0.24867 0.24867 0.71717zm-0.6451-0.38021q-0.0054-0.20362-0.10091-0.30633-0.0955-0.10271-0.29732-0.10271-0.1874 0-0.30813 0.097305-0.12073 0.097305-0.13515 0.31174z"/>
<path d="m13.911 4.3809q-0.26489 0-0.48472-0.063068-0.21804-0.063068-0.38021-0.19461-0.16037-0.13154-0.24867-0.33156-0.0883-0.20002-0.0883-0.4685 0-0.2829 0.0937-0.48833 0.0955-0.20542 0.26488-0.34057 0.16398-0.12794 0.37841-0.1874t0.44508-0.059464q0.20722 0 0.38201 0.045048 0.17479 0.045049 0.32615 0.11713v0.5532h-0.0919q-0.03784-0.032435-0.0919-0.075681-0.05226-0.043247-0.12974-0.084691-0.07388-0.039643-0.16217-0.06487-0.08829-0.027029-0.20542-0.027029-0.25948 0-0.40003 0.16578-0.13875 0.16398-0.13875 0.44688 0 0.29191 0.14235 0.44328 0.14416 0.15136 0.40724 0.15136 0.12253 0 0.21984-0.027029 0.09911-0.028831 0.16398-0.066672 0.06127-0.036039 0.10812-0.075681 0.04685-0.039643 0.08649-0.077484h0.0919v0.5532q-0.15316 0.072078-0.32074 0.11352-0.16578 0.043247-0.3676 0.043247z"/>
<path d="m16.32 4.3088q-0.10451 0.027029-0.22164 0.041445-0.11713 0.016217-0.28651 0.016217-0.37841 0-0.56401-0.15316-0.1838-0.15316-0.1838-0.52436v-0.94602h-0.26669v-0.43967h0.26669v-0.57842h0.6487v0.57842h0.60725v0.43967h-0.60725v0.71717q0 0.10631 0.0018 0.1856 0.0018 0.079285 0.02883 0.14235 0.02523 0.063068 0.0883 0.10091 0.06487 0.036039 0.1874 0.036039 0.05045 0 0.13154-0.021623 0.08289-0.021623 0.11532-0.039643h0.05406z"/>
<path d="m18.464 3.6854q0 0.31354-0.2811 0.50635-0.2811 0.19101-0.76943 0.19101-0.27029 0-0.49013-0.050454-0.21984-0.050455-0.35318-0.11172v-0.53337h0.05946q0.04865 0.034237 0.11172 0.075681 0.06487 0.039643 0.182 0.086493 0.10091 0.041445 0.22885 0.072078 0.12794 0.028831 0.2739 0.028831 0.19101 0 0.2829-0.041445 0.0919-0.043247 0.0919-0.12614 0-0.07388-0.05406-0.10631-0.05406-0.034237-0.20542-0.06487-0.07208-0.016217-0.19641-0.034237-0.12253-0.019821-0.22344-0.04685-0.2757-0.072078-0.40904-0.22344-0.13334-0.15316-0.13334-0.38021 0-0.29191 0.2757-0.48472 0.2775-0.19461 0.75682-0.19461 0.22704 0 0.43427 0.04685 0.20902 0.045049 0.32615 0.097305v0.51175h-0.05586q-0.14416-0.099107-0.32976-0.16037-0.1838-0.063068-0.373-0.063068-0.15677 0-0.26488 0.043247-0.10632 0.043247-0.10632 0.12253 0 0.072078 0.04865 0.10992 0.04865 0.037841 0.22885 0.075681 0.09911 0.019821 0.21263 0.039643 0.11532 0.018019 0.23065 0.04685 0.25588 0.066672 0.37841 0.21083 0.12253 0.14235 0.12253 0.35678z"/>
<path d="m22.126 5.0692h-0.6487v-0.94061q-0.15857 0.12794-0.30993 0.19101-0.15136 0.063068-0.34057 0.063068-0.3712 0-0.59284-0.28471-0.21984-0.28471-0.21984-0.76763 0-0.25768 0.07388-0.45589 0.07568-0.20002 0.20542-0.34237 0.12253-0.13515 0.29732-0.20903 0.17479-0.075681 0.34958-0.075681 0.17118 0 0.28651 0.039643 0.11713 0.037841 0.24687 0.10631l0.02342-0.090097h0.62888zm-0.6487-1.301v-0.99287q-0.06847-0.028831-0.14416-0.041445-0.07568-0.012614-0.13875-0.012614-0.25588 0-0.38381 0.16037-0.12794 0.15857-0.12794 0.44148 0 0.29732 0.10271 0.43247 0.10271 0.13334 0.32976 0.13334 0.0883 0 0.1874-0.032435 0.09911-0.034237 0.17479-0.088294z"/>
<path d="m24.755 4.3268h-0.6487v-0.22344q-0.18019 0.13695-0.32976 0.20903-0.14956 0.070276-0.35678 0.070276-0.33516 0-0.51716-0.19281-0.18019-0.19281-0.18019-0.56941v-1.3172h0.6523v1.0037q0 0.15316 9e-3 0.25588 0.01081 0.10091 0.04685 0.16758 0.03424 0.066672 0.10271 0.097305 0.07028 0.030633 0.19461 0.030633 0.08289 0 0.1838-0.030633 0.10091-0.030633 0.19461-0.090097v-1.4343h0.6487z"/>
<path d="m26.018 4.3268h-0.6487v-2.0236h0.6487zm0.01802-2.3119h-0.68474v-0.49193h0.68474z"/>
<path d="m27.685 4.3809q-0.26488 0-0.48472-0.063068-0.21804-0.063068-0.38021-0.19461-0.16037-0.13154-0.24867-0.33156-0.0883-0.20002-0.0883-0.4685 0-0.2829 0.0937-0.48833 0.0955-0.20542 0.26488-0.34057 0.16398-0.12794 0.37841-0.1874t0.44508-0.059464q0.20722 0 0.38201 0.045048 0.17479 0.045049 0.32615 0.11713v0.5532h-0.0919q-0.03784-0.032435-0.0919-0.075681-0.05226-0.043247-0.12974-0.084691-0.07388-0.039643-0.16218-0.06487-0.0883-0.027029-0.20542-0.027029-0.25948 0-0.40003 0.16578-0.13875 0.16398-0.13875 0.44688 0 0.29191 0.14235 0.44328 0.14416 0.15136 0.40724 0.15136 0.12253 0 0.21984-0.027029 0.09911-0.028831 0.16398-0.066672 0.06127-0.036039 0.10812-0.075681 0.04685-0.039643 0.08649-0.077484h0.0919v0.5532q-0.15316 0.072078-0.32075 0.11352-0.16578 0.043247-0.3676 0.043247z"/>
<path d="m30.948 4.3268h-0.75501l-0.56761-0.88115-0.17659 0.21443v0.66672h-0.6487v-2.8038h0.6487v1.674l0.69915-0.89376h0.7478l-0.72798 0.87214z"/>
<path d="m33.766 3.7989v-0.42165q-0.13154 0.010812-0.28471 0.030633-0.15316 0.018019-0.23245 0.043247-0.0973 0.030633-0.14956 0.090097-0.05046 0.057662-0.05046 0.15316 0 0.063068 0.01081 0.10271 0.01081 0.039643 0.05406 0.075681 0.04144 0.036039 0.09911 0.054058 0.05766 0.016217 0.18019 0.016217 0.0973 0 0.19641-0.039643 0.10091-0.039643 0.17659-0.10451zm0 0.31354q-0.05226 0.039643-0.12974 0.095503t-0.14596 0.088295q-0.0955 0.043247-0.19821 0.063068-0.10271 0.021623-0.22524 0.021623-0.28831 0-0.48292-0.17839-0.19461-0.17839-0.19461-0.45589 0-0.22164 0.09911-0.36219 0.09911-0.14055 0.2811-0.22164 0.18019-0.081087 0.44688-0.11532 0.26669-0.034237 0.5532-0.050454v-0.010812q0-0.16758-0.13695-0.23065-0.13695-0.06487-0.40364-0.06487-0.16037 0-0.34237 0.057662-0.182 0.05586-0.26128 0.086493h-0.05946v-0.48833q0.10271-0.027029 0.33336-0.063068 0.23245-0.037841 0.4649-0.037841 0.5532 0 0.79826 0.17118 0.24686 0.16938 0.24686 0.53337v1.3767h-0.64329z"/>
<path d="m36.06 4.3809q-0.26488 0-0.48472-0.063068-0.21804-0.063068-0.38021-0.19461-0.16037-0.13154-0.24867-0.33156-0.0883-0.20002-0.0883-0.4685 0-0.2829 0.0937-0.48833 0.0955-0.20542 0.26489-0.34057 0.16398-0.12794 0.37841-0.1874t0.44508-0.059464q0.20722 0 0.38201 0.045048 0.17479 0.045049 0.32615 0.11713v0.5532h-0.0919q-0.03784-0.032435-0.0919-0.075681-0.05226-0.043247-0.12974-0.084691-0.07388-0.039643-0.16217-0.06487-0.0883-0.027029-0.20542-0.027029-0.25948 0-0.40003 0.16578-0.13875 0.16398-0.13875 0.44688 0 0.29191 0.14235 0.44328 0.14416 0.15136 0.40724 0.15136 0.12253 0 0.21984-0.027029 0.09911-0.028831 0.16398-0.066672 0.06127-0.036039 0.10812-0.075681 0.04685-0.039643 0.08649-0.077484h0.0919v0.5532q-0.15316 0.072078-0.32074 0.11352-0.16578 0.043247-0.3676 0.043247z"/>
<path d="m38.23 4.3809q-0.26488 0-0.48472-0.063068-0.21803-0.063068-0.38021-0.19461-0.16037-0.13154-0.24867-0.33156-0.0883-0.20002-0.0883-0.4685 0-0.2829 0.0937-0.48833 0.0955-0.20542 0.26488-0.34057 0.16398-0.12794 0.37841-0.1874t0.44508-0.059464q0.20722 0 0.38201 0.045048 0.17479 0.045049 0.32615 0.11713v0.5532h-0.0919q-0.03784-0.032435-0.0919-0.075681-0.05226-0.043247-0.12974-0.084691-0.07388-0.039643-0.16218-0.06487-0.0883-0.027029-0.20542-0.027029-0.25948 0-0.40003 0.16578-0.13875 0.16398-0.13875 0.44688 0 0.29191 0.14235 0.44328 0.14416 0.15136 0.40724 0.15136 0.12253 0 0.21984-0.027029 0.09911-0.028831 0.16398-0.066672 0.06127-0.036039 0.10812-0.075681 0.04685-0.039643 0.08649-0.077484h0.0919v0.5532q-0.15316 0.072078-0.32075 0.11352-0.16578 0.043247-0.3676 0.043247z"/>
<path d="m41.338 3.4349h-1.4848q0.01442 0.23786 0.18019 0.36399 0.16758 0.12614 0.49193 0.12614 0.20542 0 0.39823-0.073879 0.19281-0.07388 0.30453-0.15857h0.07208v0.52076q-0.21984 0.088295-0.41445 0.12794-0.19461 0.039643-0.43066 0.039643-0.60906 0-0.9334-0.2739-0.32435-0.27389-0.32435-0.78024 0-0.50094 0.30633-0.79285 0.30813-0.29372 0.84331-0.29372 0.49373 0 0.7424 0.25047 0.24867 0.24867 0.24867 0.71717zm-0.6451-0.38021q-0.0054-0.20362-0.10091-0.30633-0.0955-0.10271-0.29732-0.10271-0.1874 0-0.30813 0.097305t-0.13515 0.31174z"/>
<path d="m43.555 3.6854q0 0.31354-0.2811 0.50635-0.2811 0.19101-0.76943 0.19101-0.27029 0-0.49013-0.050454-0.21984-0.050455-0.35318-0.11172v-0.53337h0.05946q0.04865 0.034237 0.11172 0.075681 0.06487 0.039643 0.182 0.086493 0.10091 0.041445 0.22885 0.072078 0.12794 0.028831 0.2739 0.028831 0.191 0 0.2829-0.041445 0.0919-0.043247 0.0919-0.12614 0-0.07388-0.05406-0.10631-0.05406-0.034237-0.20542-0.06487-0.07208-0.016217-0.19641-0.034237-0.12253-0.019821-0.22344-0.04685-0.27569-0.072077-0.40904-0.22344-0.13334-0.15316-0.13334-0.38021 0-0.29191 0.2757-0.48472 0.2775-0.19461 0.75682-0.19461 0.22704 0 0.43427 0.04685 0.20902 0.045049 0.32615 0.097305v0.51175h-0.055861q-0.14416-0.099107-0.32976-0.16037-0.1838-0.063068-0.373-0.063068-0.15677 0-0.26489 0.043247-0.10631 0.043247-0.10631 0.12253 0 0.072078 0.04865 0.10992 0.04865 0.037841 0.22885 0.075681 0.09911 0.019821 0.21263 0.039643 0.11532 0.018019 0.23065 0.04685 0.25588 0.066672 0.37841 0.21083 0.12253 0.14235 0.12253 0.35678z"/>
<path d="m45.746 3.6854q0 0.31354-0.2811 0.50635-0.2811 0.19101-0.76943 0.19101-0.27029 0-0.49013-0.050454-0.21984-0.050455-0.35318-0.11172v-0.53337h0.05946q0.04865 0.034237 0.11172 0.075681 0.06487 0.039643 0.182 0.086493 0.10091 0.041445 0.22885 0.072078 0.12794 0.028831 0.2739 0.028831 0.19101 0 0.2829-0.041445 0.0919-0.043247 0.0919-0.12614 0-0.07388-0.05406-0.10631-0.05406-0.034237-0.20542-0.06487-0.07208-0.016217-0.19641-0.034237-0.12253-0.019821-0.22344-0.04685-0.2757-0.072078-0.40904-0.22344-0.13334-0.15316-0.13334-0.38021 0-0.29191 0.2757-0.48472 0.2775-0.19461 0.75682-0.19461 0.22704 0 0.43427 0.04685 0.20902 0.045049 0.32615 0.097305v0.51175h-0.05586q-0.14416-0.099107-0.32976-0.16037-0.1838-0.063068-0.373-0.063068-0.15677 0-0.26488 0.043247-0.10632 0.043247-0.10632 0.12253 0 0.072078 0.04865 0.10992 0.04865 0.037841 0.22885 0.075681 0.09911 0.019821 0.21263 0.039643 0.11532 0.018019 0.23065 0.04685 0.25588 0.066672 0.37841 0.21083 0.12253 0.14235 0.12253 0.35678z"/>
</g>
</svg>
