<svg width="7.8895mm" height="7.8895mm" version="1.1" viewBox="0 0 7.8895016 7.8895016"><rect x="8.1884e-7" y="8.1884e-7" width="7.8895" height="7.8895" ry=".86863" fill="#f1e05a" fill-rule="evenodd"/><path d="m1.299 1.29h5.2917v5.2917h-5.2917zm4.8582 4.0296c-0.03858-0.24143-0.19579-0.44426-0.66212-0.63345-0.16228-0.076-0.34264-0.129-0.39622-0.25135-0.020069-0.0727-0.023151-0.1125-0.010171-0.1555 0.03307-0.1425 0.20174-0.1852 0.33404-0.1455 0.08598 0.0265 0.16537 0.0927 0.2152 0.19844 0.22798-0.149 0.22798-0.149 0.38695-0.24805-0.059529-0.0927-0.089079-0.1325-0.1292-0.17197-0.1389-0.1555-0.32389-0.23483-0.62486-0.22798l-0.15545 0.019701c-0.14905 0.0365-0.29104 0.11584-0.37703 0.22159-0.25135 0.28465-0.17882 0.78075 0.12545 0.9858 0.30096 0.2249 0.74105 0.27428 0.79728 0.48616 0.05292 0.25797-0.19182 0.34065-0.43348 0.31089-0.17881-0.0397-0.27781-0.12917-0.38695-0.29457l-0.40349 0.23173c0.0463 0.10584 0.09922 0.15184 0.17859 0.24452 0.38364 0.38717 1.3428 0.36732 1.515-0.22137 0.0063-0.019801 0.05292-0.1555 0.01633-0.3638zm-1.9806-1.5974h-0.49565c0 0.4273-0.00201 0.85196-0.00201 1.2799 0 0.27165 0.01383 0.52102-0.03042 0.59775-0.07277 0.15184-0.26017 0.1325-0.34528 0.10584-0.08732-0.0432-0.13163-0.10267-0.183-0.18852-0.01383-0.023199-0.024249-0.0433-0.028-0.0433l-0.40239 0.24805c0.06725 0.13883 0.16537 0.2584 0.29192 0.33446 0.18852 0.1125 0.44186 0.14884 0.7071 0.0893 0.17264-0.0498 0.32147-0.15234 0.3993-0.3111 0.11245-0.20505 0.08863-0.45642 0.08753-0.73775 0.0027-0.45289 0-0.90599 0-1.3624z" fill="#544c12" stroke-width=".22049"/></svg>