<svg width="7.8895mm" height="7.8895mm" version="1.1" viewBox="0 0 7.8895016 7.8895016"><rect x="8.1884e-7" y="8.1884e-7" width="7.8895" height="7.8895" ry=".86863" fill="#292929" fill-rule="evenodd"/><path d="m3.954 6.58c0.10562-8.202e-4 0.21012-7e-3 0.31441-0.020799a2.6028 2.6028 0 0 0 0.69365 -0.19028 2.7349 2.7349 0 0 0 0.8363 -0.56047 2.6408 2.6408 0 0 0 0.53799 -0.75562 2.6004 2.6004 0 0 0 0.2249 -0.7664c0.03285-0.25576 0.02977-0.51726-0.01-0.77148a2.637 2.637 0 0 0 -0.17484 -0.61472 2.4688 2.4688 0 0 0 -0.1883 -0.35651c-0.25753-0.40504-0.63081-0.7307-1.0605-0.9481a2.8299 2.8299 0 0 0 -0.4789 -0.19182h-0.00111c0.026231 0.0133 0.05292 0.029 0.07607 0.0443 0.02645 0.0167 0.05268 0.0322 0.07738 0.0497a1.9689 1.9689 0 0 1 0.34374 0.29325c0.23438 0.25245 0.39622 0.5618 0.48904 0.89098 0.06262 0.21652 0.09568 0.44054 0.10913 0.6652 0.0097 0.16384 0.0097 0.32875-0.010329 0.49147-0.03285 0.28002-0.12215 0.55342-0.27076 0.79287a1.6481 1.6481 0 0 1 -0.41958 0.4595c-0.27428 0.2046-0.63434 0.32675-0.97808 0.24561a0.86342 0.86342 0 0 1 -0.16492 -0.057 1.0345 1.0345 0 0 1 -0.17176 -0.0992 1.3406 1.3406 0 0 1 -0.27428 -0.24365 1.4347 1.4347 0 0 1 -0.23129 -0.38519 1.6241 1.6241 0 0 1 -0.10892 -0.56003c-0.0067-0.28068 0.0496-0.5629 0.1883-0.80918a1.4177 1.4177 0 0 1 0.36667 -0.4229c0.04962-0.0393 0.1023-0.0733 0.15522-0.10567l0.0035-0.00201a1.1291 1.1291 0 0 0 -0.31771 -0.026489 1.0943 1.0943 0 0 0 -0.27076 0.0528c-0.07915 0.0265-0.15522 0.0595-0.22468 0.0992a1.3551 1.3551 0 0 0 -0.16162 0.10884c-0.04652 0.0397-0.0926 0.0795-0.1356 0.12233-0.24761 0.25422-0.38982 0.59133-0.44582 0.93838-0.03308 0.21454-0.03308 0.43215-0.02007 0.65044 0.02315 0.30758 0.08622 0.6145 0.20836 0.89561a1.8781 1.8781 0 0 0 0.29722 0.47912 1.7948 1.7948 0 0 0 0.69056 0.49168 1.7493 1.7493 0 0 0 0.46589 0.119c0.01633 3e-3 0.03285 3e-3 0.04608 3e-3zm-0.64691-0.0877a0.90443 0.90443 0 0 1 -0.09922 -0.0502 1.8741 1.8741 0 0 1 -0.44935 -0.33823c-0.24121-0.25069-0.40283-0.56577-0.49543-0.89959a3.3479 3.3479 0 0 1 -0.10913 -0.69938 2.6767 2.6767 0 0 1 0.01017 -0.45905c0.02977-0.27715 0.10913-0.55143 0.24783-0.78933a1.5189 1.5189 0 0 1 0.39313 -0.45267 1.3736 1.3736 0 0 1 0.36006 -0.19843 1.1825 1.1825 0 0 1 0.77655 -0.01c0.0063 0 0.0063 0 0.010001 7e-3 0.0033 3e-3 0.01 3e-3 0.013171 7e-3 0.010001 3e-3 0.022929 0.01 0.03638 0.0167 0.0527 0.0265 0.10562 0.0598 0.15522 0.0927a1.3877 1.3877 0 0 1 0.46236 0.55167c0.0926 0.20152 0.1356 0.42642 0.13913 0.64778 0.0032 0.2379-0.03968 0.47559-0.14222 0.69365a1.4155 1.4155 0 0 1 -0.58164 0.62442c0.019831 7e-3 0.03968 0.010001 0.05975 0.0167 0.04962 0.01 0.099 0.0167 0.1517 0.0167 0.32367 0.01 0.63765-0.1455 0.86872-0.36315 0.043-0.0397 0.08268-0.0827 0.11907-0.129 0.04962-0.0595 0.09592-0.119 0.13538-0.18145 0.0527-0.0827 0.09592-0.16533 0.13538-0.25445a1.7886 1.7886 0 0 0 0.11223 -0.36688c0.043217-0.22137 0.046517-0.44582 0.032847-0.66718-0.02977-0.44584-0.14838-0.89187-0.40614-1.2621a1.9963 1.9963 0 0 0 -0.12237 -0.1585 2.1758 2.1758 0 0 0 -0.23438 -0.22798 1.8691 1.8691 0 0 0 -0.30052 -0.20175 2.1888 2.1888 0 0 0 -0.37306 -0.13184l-0.06615-0.0133c-0.04608-7e-3 -0.0926-0.01-0.13978-0.0133a1.8638 1.8638 0 0 0 -0.22379 3e-3c-0.15522 0.01-0.31133 0.0352-0.46567 0.0743-0.73995 0.19095-1.3873 0.70667-1.7319 1.391a2.6092 2.6092 0 0 0 -0.23416 0.69035 2.6039 2.6039 0 0 0 -0.02293 0.83234c0.02647 0.22488 0.08247 0.44603 0.17154 0.65638 0.05005 0.12567 0.11267 0.24783 0.1819 0.36337 0.24121 0.39311 0.59156 0.71348 0.99439 0.93485 0.1517 0.086 0.31044 0.15216 0.47559 0.20815 0.04983 0.0167 0.09922 0.033 0.15192 0.0463z" fill="#8f8f8f" stroke-width=".22049"/></svg>