<svg width="7.8895mm" height="7.8895mm" version="1.1" viewBox="0 0 7.8895016 7.8895016"><rect width="7.8895" height="7.8895" ry=".86863" fill="#2b7489" fill-rule="evenodd"/><path d="m1.547 1.2989c-0.13737 0-0.24805 0.11067-0.24805 0.24805v4.7956c0 0.13733 0.11068 0.24805 0.24805 0.24805h4.7956c0.13737 0 0.24805-0.11067 0.24805-0.24805v-4.7956c0-0.13733-0.11068-0.24805-0.24805-0.24805zm3.8283 2.1498c0.13494 0 0.25444 8e-3 0.35873 0.0245a1.4067 1.4067 0 0 1 0.28796 0.075v0.54195a0.87092 0.87092 0 0 0 -0.14179 -0.0797 1.1229 1.1229 0 0 0 -0.15808 -0.0573 1.2023 1.2023 0 0 0 -0.31442 -0.0442c-0.0662 0-0.12633 7e-3 -0.18057 0.019a0.46302 0.46302 0 0 0 -0.13737 0.0533c-0.0375 0.023-0.0662 0.0505-0.0866 0.0825a0.19579 0.19579 0 0 0 -0.0308 0.108c0 0.0432 0.0117 0.0822 0.0344 0.11667 0.0229 0.0343 0.0556 0.067 0.0977 0.0978s0.0933 0.0608 0.15346 0.0903c0.0602 0.0298 0.12832 0.0603 0.20418 0.0917 0.10363 0.0433 0.19667 0.0897 0.27913 0.1385 0.0825 0.0488 0.15324 0.10433 0.21233 0.166 0.0591 0.0615 0.10406 0.13183 0.13538 0.211 0.0313 0.0792 0.0472 0.1711 0.0472 0.27627 0 0.14483-0.0276 0.26678-0.0823 0.36511a0.66873 0.66873 0 0 1 -0.22314 0.23924 0.96573 0.96573 0 0 1 -0.32786 0.13133c-0.12479 0.0265-0.25643 0.0397-0.39467 0.0397a2.1863 2.1863 0 0 1 -0.40569 -0.0362 1.2224 1.2224 0 0 1 -0.33338 -0.10867v-0.57955a1.1097 1.1097 0 0 0 0.71371 0.26459c0.0734 0 0.13759-7e-3 0.19227-0.019799 0.0549-0.013301 0.10053-0.0318 0.13735-0.0552 0.0366-0.023799 0.0639-0.0515 0.0823-0.0838a0.22556 0.22556 0 0 0 -0.0163 -0.24011 0.46743 0.46743 0 0 0 -0.1184 -0.11016 1.2341 1.2341 0 0 0 -0.17794 -0.0978 6.1119 6.1119 0 0 0 -0.22202 -0.0962c-0.20241-0.0845-0.35322-0.18785-0.45266-0.30979-0.0992-0.12183-0.14905-0.26943-0.14905-0.44206 0-0.13534 0.0271-0.25159 0.0813-0.34882 0.0543-0.0972 0.12789-0.17727 0.22137-0.2401a0.99086 0.99086 0 0 1 0.32412 -0.13867 1.6616 1.6616 0 0 1 0.39025 -0.0443zm-3.3322 0.0413h2.1085v0.47757h-0.7567v2.1268h-0.59906v-2.1268h-0.75274z" fill="#9ed2e0" stroke-width=".22049"/></svg>