<?xml version="1.0" encoding="UTF-8"?>
<svg width="7.8394mm" height="7.8565mm" version="1.1" viewBox="0 0 7.8394 7.8565" xmlns="http://www.w3.org/2000/svg" xmlns:cc="http://creativecommons.org/ns#" xmlns:dc="http://purl.org/dc/elements/1.1/" xmlns:rdf="http://www.w3.org/1999/02/22-rdf-syntax-ns#">
<path d="m0.48474 7.7768c-0.20089-0.094973-0.32372-0.21976-0.41517-0.42178-0.064654-0.14283-0.068134-0.21508-0.068831-1.4291-5.7415e-4 -1.0008 0.0083489-1.2788 0.041053-1.2793 0.022983-3.175e-4 0.52621-0.087631 1.1183-0.19402l1.0765-0.19344 2.0325 1.7334c1.1179 0.95338 2.0622 1.7628 2.0984 1.7987 0.065395 0.064722 0.042427 0.06525-2.8248 0.064926l-2.8908-3.34e-4 -0.16715-0.07902z" fill="#0f0"/>
<path d="m3.2658e-4 2.5612 3.2658e-4 -1.8755 0.077951-0.16739c0.042873-0.092067 0.13565-0.21806 0.20618-0.27998 0.26675-0.23421 0.083827-0.22023 3.0164-0.23055 1.4571-0.0051271 2.6495 0.0023945 2.6497 0.016715 2.006e-4 0.014321-0.21178 0.61346-0.47108 1.3314l-0.47145 1.3054-0.49004 0.17334c-0.26952 0.095336-1.3964 0.4948-2.5042 0.8877l-2.0142 0.71436z" fill="#000080"/>
<path d="m5.8647 6.8678c-0.45842-0.54374-0.83751-0.99958-0.84242-1.013-0.0049133-0.013398 0.23202-1.3274 0.52652-2.92 0.2945-1.5926 0.53546-2.9044 0.53546-2.9151 0-0.034653 0.89423-0.020521 1.0687 0.016889 0.24436 0.052405 0.4602 0.21215 0.58332 0.4317l0.1031 0.18387v6.5857l-0.073926 0.13821c-0.17746 0.33179-0.42638 0.47838-0.81423 0.47951l-0.25299 7.409e-4z" fill="#f00"/>
</svg>
