<?xml version="1.0" encoding="UTF-8"?>
<svg width="7.89mm" height="7.8889mm" version="1.1" viewBox="0 0 7.89 7.8889" xmlns="http://www.w3.org/2000/svg" xmlns:cc="http://creativecommons.org/ns#" xmlns:dc="http://purl.org/dc/elements/1.1/" xmlns:rdf="http://www.w3.org/1999/02/22-rdf-syntax-ns#">
<path d="m7.0213 2e-8c0.48122 0 0.86868 0.38746 0.86868 0.86868v5.3532l-3.945-2.2774v-3.9445z" fill="#563d7c" fill-rule="evenodd"/>
<path d="m3.945 3.9445-3.9445 2.2774v0.7984c0 0.48122 0.38746 0.86868 0.86868 0.86868h6.1521c0.48122 0 0.86868-0.38746 0.86868-0.86868v-0.7984z" fill="#f1e05a" fill-rule="evenodd"/>
<path d="m0.86868 0c-0.48122 0-0.86868 0.38746-0.86868 0.86868v5.3532l3.945-2.2774v-3.9445z" fill="#e34c26" fill-rule="evenodd"/>
<path d="m5.7549 5.0886-0.66615 2.4735h-0.70602l-0.44354-1.6114-0.43192 1.6114h-0.70602l-0.66615-2.4735h0.66615l0.38042 1.7027 0.45517-1.7027h0.63624l0.43358 1.7027 0.39869-1.7027z" fill="#563d7c" stroke-width=".25516"/>
<path d="m7.7516 1.4052-0.65313 2.5228h-0.69222l-0.43488-1.6435-0.42348 1.6435h-0.69222l-0.65313-2.5228h0.65313l0.37298 1.7367 0.44628-1.7367h0.62381l0.4251 1.7367 0.3909-1.7367z" fill="#e34c26"/>
<text transform="scale(.98046 1.0199)" x="0.031449646" y="3.8513107" fill="#f1e05a" font-family="sans-serif" font-size="3.4022px" font-weight="bold" letter-spacing="0px" stroke-width=".25516" word-spacing="0px" style="line-height:1.25" xml:space="preserve"><tspan x="0.031449646" y="3.8513107" fill="#f1e05a" font-family="sans-serif" font-weight="bold" stroke-width=".25516">W</tspan></text>
</svg>
