<?xml version="1.0" encoding="UTF-8"?>
<svg width="7.89mm" height="7.8889mm" version="1.1" viewBox="0 0 7.89 7.8889" xmlns="http://www.w3.org/2000/svg" xmlns:cc="http://creativecommons.org/ns#" xmlns:dc="http://purl.org/dc/elements/1.1/" xmlns:rdf="http://www.w3.org/1999/02/22-rdf-syntax-ns#">
<path d="m3.9448 3.9445-3.9445 2.2774v0.7984c0 0.48122 0.38746 0.86868 0.86868 0.86868h6.1521c0.48122 0 0.86868-0.38746 0.86868-0.86868v-0.7984z" fill="#f1e05a" fill-rule="evenodd"/>
<path d="m7.0213 2e-8c0.48122 0 0.86868 0.38746 0.86868 0.86868v5.3532l-3.945-2.2774v-3.9445z" fill="#563d7c" fill-rule="evenodd"/>
<path d="M 0.86868,0 C 0.38746,0 0,0.38746 0,0.86868 v 5.3532 L 3.945,3.94448 V -2e-5 Z" fill="#e34c26" fill-rule="evenodd"/>
<path d="m5.7549 5.0531-0.66615 2.4735h-0.70602l-0.44354-1.6114-0.43192 1.6114h-0.70602l-0.66615-2.4735h0.66615l0.38042 1.7027 0.45517-1.7027h0.63624l0.43358 1.7027 0.39869-1.7027z" fill="#563d7c" stroke-width=".25516"/>
<path d="m3.8385 1.2149-0.66615 2.4736h-0.70602l-0.44355-1.6114-0.43192 1.6114h-0.70602l-0.66615-2.4736h0.66615l0.38042 1.7028 0.45518-1.7028h0.63625l0.43358 1.7028 0.3987-1.7028z" fill="#f1e05a" stroke-width=".25516"/>
<path d="m7.6713 1.1903-0.65313 2.5228h-0.69222l-0.43488-1.6435-0.42348 1.6435h-0.69222l-0.65313-2.5228h0.65313l0.37298 1.7367 0.44628-1.7367h0.62381l0.4251 1.7367 0.3909-1.7367z" fill="#e34c26"/>
</svg>
