<svg viewBox="0 0 10.583333 2.3080316" xmlns="http://www.w3.org/2000/svg">
<g transform="translate(-68.23 -169.55)" stroke-width=".26458">
<g transform="matrix(.66219 0 0 .66219 22.798 58.776)" fill="#fff" aria-label="_proto_">
<path d="m68.608 170.43v-0.46214h2.5188v0.46214z"/>
<path d="m71.529 170.78v-2.8575h1.591q0.20108 0 0.3422 0.14464 0.14464 0.14111 0.14464 0.3422v1.0724q0 0.20109-0.14464 0.34572-0.14111 0.14112-0.3422 0.14112h-1.1289v0.81138zm0.58561-1.2735h0.90664q0.09878 0 0.10936-0.0106 0.01411-0.0141 0.01411-0.11289v-0.87488q0-0.0988-0.01411-0.10937-0.01058-0.0141-0.10936-0.0141h-0.90664q-0.09878 0-0.11289 0.0141-0.01058 0.0106-0.01058 0.10937v0.87488q0 0.0988 0.01058 0.11289 0.01411 0.0106 0.11289 0.0106z"/>
<path d="m73.865 169.96v-1.5593q0-0.20109 0.14111-0.3422 0.14464-0.14464 0.34572-0.14464h1.1359v0.46214h-1.0372q-0.09878 0-0.11289 0.0141-0.01058 0.0106-0.01058 0.10937v1.4605z"/>
<path d="m76.195 169.96q-0.20108 0-0.34572-0.14112-0.14111-0.14463-0.14111-0.34572v-1.0724q0-0.20109 0.14111-0.3422 0.14464-0.14464 0.34572-0.14464h1.1042q0.20108 0 0.34219 0.14464 0.14464 0.14111 0.14464 0.3422v1.0724q0 0.20109-0.14464 0.34572-0.14111 0.14112-0.34219 0.14112zm0.09878-0.46214h0.90664q0.09878 0 0.10936-0.0106 0.01411-0.0141 0.01411-0.11289v-0.87488q0-0.0988-0.01411-0.10937-0.01058-0.0141-0.10936-0.0141h-0.90664q-0.09878 0-0.11289 0.0141-0.01058 0.0106-0.01058 0.10937v0.87488q0 0.0988 0.01058 0.11289 0.01411 0.0106 0.11289 0.0106z"/>
<path d="m78.572 169.96q-0.20108 0-0.34572-0.14112-0.14111-0.14463-0.14111-0.34572v-2.1872h0.46214v0.62794h0.79728v0.46214h-0.79728v0.99836q0 0.0988 0.01058 0.11289 0.01411 0.0106 0.11289 0.0106h0.6738v0.46214z"/>
<path d="m80.108 169.96q-0.20108 0-0.34572-0.14112-0.14111-0.14463-0.14111-0.34572v-1.0724q0-0.20109 0.14111-0.3422 0.14464-0.14464 0.34572-0.14464h1.1042q0.20108 0 0.34219 0.14464 0.14464 0.14111 0.14464 0.3422v1.0724q0 0.20109-0.14464 0.34572-0.14111 0.14112-0.34219 0.14112zm0.09878-0.46214h0.90664q0.09878 0 0.10936-0.0106 0.01411-0.0141 0.01411-0.11289v-0.87488q0-0.0988-0.01411-0.10937-0.01058-0.0141-0.10936-0.0141h-0.90664q-0.09878 0-0.11289 0.0141-0.01058 0.0106-0.01058 0.10937v0.87488q0 0.0988 0.01058 0.11289 0.01411 0.0106 0.11289 0.0106z"/>
<path d="m82.071 170.43v-0.46214h2.5188v0.46214z"/></g></g></svg>