<?xml version="1.0" encoding="UTF-8"?>
<svg width="7.8895mm" height="7.8895mm" version="1.1" viewBox="0 0 7.8895016 7.8895016" xmlns="http://www.w3.org/2000/svg" xmlns:cc="http://creativecommons.org/ns#" xmlns:dc="http://purl.org/dc/elements/1.1/" xmlns:rdf="http://www.w3.org/1999/02/22-rdf-syntax-ns#">
<defs>
<style>.main  { fill: #000; }
      .flare { fill: #999; }</style>
</defs>
<rect x="8.1884e-7" y="8.1884e-7" width="7.8895" height="7.8895" ry=".86863" fill="#267cb9" fill-rule="evenodd"/>
<g transform="matrix(.014487 0 0 .014487 .32298 3.1337)" fill="#000203">
<g class="main">
<path d="m73.97 7.9374h19.703v56.237q0 6.1923-2.1955 11.146-2.1955 4.9538-6.0234 8.444-3.7717 3.4902-8.9507 5.4042-5.1227 1.8577-11.09 1.8577-6.1923 0-11.371-1.5199-5.179-1.5762-8.9507-4.7287-3.7154-3.2087-5.8545-8.05-2.0829-4.8976-2.0829-11.596h19.815q0 3.1524 0.56294 5.2353 0.56294 2.0266 1.6325 3.265 1.0696 1.1822 2.6458 1.6888 1.5762 0.50664 3.6028 0.50664 4.1094 0 6.3049-3.0399 2.2517-3.0962 2.2517-8.6129z"/>
<path d="m148.45 68.115q0-1.914-0.56293-3.4339-0.50665-1.5762-2.0829-2.9273-1.5762-1.4073-4.4472-2.7584-2.8147-1.351-7.4308-2.871-5.4042-1.8014-10.414-4.0531-5.0101-2.2518-8.8944-5.3479t-6.2486-7.2056q-2.308-4.1657-2.308-9.6825 0-5.2916 2.3643-9.5136 2.3643-4.2783 6.5864-7.2619 4.222-2.9836 9.964-4.6161 5.7982-1.6325 12.61-1.6325 6.6989 0 12.328 1.8014 5.6294 1.8014 9.6825 5.1227 4.0531 3.3213 6.3049 8.05 2.308 4.6724 2.308 10.471h-19.703q0-2.308-0.73182-4.222-0.67552-1.9703-2.1392-3.3213-1.4073-1.4073-3.5465-2.1954-2.0829-0.78811-4.9538-0.78811-2.8147 0-4.9538 0.67552-2.1392 0.61923-3.6028 1.8014-1.4073 1.1259-2.1392 2.6458-0.73181 1.4636-0.73181 3.1524 0 1.8577 1.0133 3.3776 1.0696 1.4636 2.9836 2.8147 1.9703 1.2948 4.7287 2.4769 2.8147 1.1259 6.3049 2.2518 6.5301 2.0829 11.653 4.6161 5.1227 2.5332 8.6129 5.7982 3.5465 3.265 5.3479 7.3745 1.8577 4.1094 1.8577 9.2884 0 5.5168-2.1955 9.8514-2.1392 4.2783-6.136 7.2056-3.9406 2.9273-9.5699 4.4472-5.5731 1.5199-12.441 1.5199-4.222 0-8.3878-0.73182-4.1657-0.67552-7.9937-2.1392-3.7717-1.4636-7.093-3.6591-3.265-2.2518-5.6857-5.3479-2.3643-3.0962-3.7717-7.0367-1.351-3.9406-1.351-8.7818h19.815q0 3.6028 0.95699 6.0797 0.95699 2.4206 2.8147 3.9406t4.5035 2.1954q2.7021 0.61923 6.1923 0.61923 2.8147 0 4.785-0.61923 2.0266-0.67552 3.3213-1.7451 1.2948-1.1259 1.8577-2.5895 0.61923-1.4636 0.61923-3.0962z"/>
<path d="m247.86 50.608q0 9.401-2.6458 16.888t-7.4308 12.722q-4.7287 5.2353-11.315 8.05-6.5301 2.7584-14.355 2.7584-7.9374 0-14.58-2.7584-6.5864-2.8147-11.371-8.05-4.7287-5.2353-7.3745-12.722t-2.6458-16.888v-3.3213q0-9.401 2.5895-16.888 2.6458-7.487 7.3745-12.722 4.785-5.2353 11.371-8.05 6.5864-2.8147 14.524-2.8147 7.8248 0 14.411 2.8147t11.315 8.05q4.785 5.2353 7.4308 12.722 2.7021 7.487 2.7021 16.888zm-20.097-3.4339q0-12.216-4.1094-18.521-4.0531-6.3612-11.653-6.3612-7.9374 0-11.878 6.3612-3.8843 6.3049-3.8843 18.521v3.4339q0 12.047 3.9968 18.521 3.9968 6.4738 11.878 6.4738 7.5433 0 11.596-6.4175 4.0531-6.4738 4.0531-18.577z"/>
<path d="m326.39 89.901h-19.646l-29.048-51.002v51.002h-19.759v-81.964h19.759l28.991 51.002v-51.002h19.703z"/>
<path d="m373.17 49.82 5.0101-41.882h47.906v14.749h-32.481l-1.8577 16.269q0.67553-0.39405 1.8577-0.9007 1.1822-0.50664 2.7584-0.95699 1.5762-0.50664 3.3776-0.78811 1.8014-0.33776 3.7717-0.33776 6.0797 0 10.808 1.8577 4.7287 1.8014 7.9374 5.3479 3.2087 3.4902 4.8975 8.6129 1.6888 5.1227 1.6888 11.709 0 5.2916-1.7451 10.245-1.6888 4.9538-5.179 8.8381-3.4902 3.828-8.8381 6.136-5.3479 2.308-12.666 2.308-5.5168 0-10.752-1.6888-5.179-1.6888-9.2322-4.8412-4.0531-3.2087-6.4738-7.7122-2.4206-4.5035-2.3643-10.189h19.027q0.28147 4.5035 2.871 7.1493 2.5895 2.6458 6.8115 2.6458 2.8147 0 4.6724-1.1259 1.8577-1.1259 2.9273-3.0398 1.1259-1.9703 1.5199-4.5598 0.45035-2.5895 0.45035-5.4605 0-3.0399-0.67552-5.4605-0.67553-2.4206-2.0829-4.1094t-3.6591-2.5895q-2.1954-0.957-5.2916-0.957-2.0266 0-3.6591 0.39406-1.5762 0.39406-2.8147 1.0133-1.1822 0.61923-2.0266 1.4073-0.84441 0.73181-1.4073 1.4636z"/>
</g>
<g class="flare">
<path d="m29.385 110.17q-5.7982-1.6325-9.6825-4.2783-3.8843-2.6458-6.2486-6.0797-2.3643-3.3776-3.3776-7.4308-0.95699-3.9968-0.95699-8.444v-11.428q0-2.5332-0.56294-4.5598-0.50664-2.0266-1.6325-3.4339-1.0696-1.4636-2.8147-2.2518-1.6888-0.78811-4.1094-0.78811v-12.779q4.785 0 6.9241-2.9836 2.1955-3.0399 2.1955-8.1063v-11.428q0-4.4472 0.95699-8.444 1.0133-4.0531 3.3776-7.4308 2.3643-3.4339 6.2486-6.0234 3.8843-2.6458 9.6825-4.2783l3.5465 9.9077q-2.1955 0.8444-3.6028 2.4206-1.4073 1.5762-2.2517 3.7154-0.8444 2.0829-1.1822 4.6724-0.33776 2.5895-0.33776 5.4605v11.428q0 5.6294-2.4769 10.189-2.4769 4.5598-7.9374 7.2619 5.4605 2.7021 7.9374 7.3182 2.4769 4.5598 2.4769 10.133v11.428q0 2.871 0.33776 5.4605 0.33776 2.5895 1.1822 4.6724 0.8444 2.1392 2.2517 3.7154 1.4073 1.5762 3.6028 2.4206z"/>
<path d="m339.23 81.007q0-2.0266 0.73181-3.7717 0.78811-1.7451 2.1392-2.9836 1.4073-1.2948 3.3213-2.0266 1.914-0.73182 4.2783-0.73182 2.308 0 4.222 0.73182 1.9703 0.73181 3.3213 2.0266 1.4073 1.2385 2.1392 2.9836 0.78811 1.7451 0.78811 3.7717t-0.78811 3.7717q-0.73182 1.7451-2.1392 3.0398-1.351 1.2385-3.3213 1.9703-1.914 0.73182-4.222 0.73182-2.3643 0-4.2783-0.73182-1.914-0.73182-3.3213-1.9703-1.351-1.2948-2.1392-3.0398-0.73181-1.7451-0.73181-3.7717zm0-44.922q0-2.0266 0.73181-3.7717 0.78811-1.7451 2.1392-2.9836 1.4073-1.2948 3.3213-2.0266 1.914-0.73182 4.2783-0.73182 2.308 0 4.222 0.73182 1.9703 0.73182 3.3213 2.0266 1.4073 1.2385 2.1392 2.9836 0.78811 1.7451 0.78811 3.7717t-0.78811 3.7717q-0.73182 1.7451-2.1392 3.0399-1.351 1.2385-3.3213 1.9703-1.914 0.73182-4.222 0.73182-2.3643 0-4.2783-0.73182-1.914-0.73181-3.3213-1.9703-1.351-1.2948-2.1392-3.0399-0.73181-1.7451-0.73181-3.7717z"/>
<path d="m457.5 87.649q0 3.4339-0.9007 6.8678t-2.4769 6.5864q-1.5762 3.2087-3.7154 5.9671-2.0829 2.8147-4.5035 4.8976l-9.5699-4.5035q0.90069-1.914 1.914-3.8843 1.0696-1.914 1.9703-4.1094 0.90069-2.1954 1.5199-4.8412 0.61923-2.5895 0.61923-5.9108v-13.116h15.199l-0.0563 12.047z"/>
<path d="m467.07 100.2q2.1954-0.8444 3.6028-2.4206 1.4073-1.5762 2.2517-3.7154 0.84441-2.0829 1.1822-4.6724 0.33776-2.5895 0.33776-5.4605v-11.428q0-5.6294 2.4769-10.189 2.4769-4.5598 7.9937-7.2619-5.5168-2.7021-7.9937-7.2619-2.4769-4.5598-2.4769-10.189v-11.428q0-2.871-0.33776-5.4605-0.33776-2.5895-1.1822-4.6724-0.8444-2.1392-2.2517-3.7154-1.4073-1.5762-3.6028-2.4206l3.5465-9.9077q5.7982 1.6325 9.6825 4.2783 3.8843 2.5895 6.2486 6.0234 2.3643 3.3776 3.3213 7.4308 1.0133 3.9968 1.0133 8.444v11.428q0 2.5332 0.50664 4.6161 0.56294 2.0266 1.6325 3.4902 1.1259 1.4073 2.8147 2.1954 1.7451 0.78811 4.1657 0.78811v12.779q-4.8412 0-6.9804 3.0399-2.1392 2.9836-2.1392 7.9937v11.428q0 4.4472-1.0133 8.444-0.957 4.0531-3.3213 7.4308-2.3643 3.4339-6.2486 6.0797t-9.6825 4.2783z"/>
</g>
</g>
</svg>